<?xml version="1.0"?>
<!--
************* Copyright (c) 2017 Pareto Softare, LLC DBA Simplemaps.com *******************		
************* Free for Commercial Use, full terms at  http://simplemaps.com/resources/svg-license ************
************* Attribution is appreciated! http://simplemaps.com ***************************
-->
<svg baseprofile="tiny" fill="#7c7c7c" height="2251" stroke="#ffffff" stroke-linecap="round" stroke-linejoin="round" stroke-width="2" version="1.2" viewbox="0 0 1000 2251" width="1000" xmlns="http://www.w3.org/2000/svg">
 <path d="M405.2 1087.2l-1.5-1.2-0.8-1.7 0.4-0.4 1.5-0.2 0.6 1.8-0.4 0.4 0.2 1.3z m-8.3-0.7l-0.9 0.6-1.1-1.3-0.4-1-0.2-1.6 0.5-1.4 0.7 0.2 0.4 1.3 0.7 0.8-0.4 0.6 0.6 0.9 0.1 0.9z m-6.9-5.6l-0.6 0.8-0.7-0.4-0.1-1.1 1.7-1.7 0.1 1.6-0.4 0.8z m-3.4-2.2l-0.5 0 0.1-1.5 1.8 0.7-0.2 0.7-1.2 0.1z m-32.7-9.9l-0.6 0.2-0.4-0.7 0.3-0.7 0.7-0.1 0.3 0.7-0.3 0.6z m-19.5-3.9l0.9 1.6 0.7 0.5-0.3 0.9-0.5 0.1-0.8-3.1z m31.8 0l0.5 1.5-0.2 1.2-0.5-0.1-1.2-1.8-0.8-0.3-0.9 0.7-0.1 1.5 0.6 1.6 0.2 1.2-0.2 0.6-1 0.2-0.4 0.4 0 1.5-0.3 0.4-1.6 0.1-1.2-0.5-0.6-0.7-0.7 0.2-0.6-0.3-0.9-1.1-0.2-1.1 0.2-0.5 3-0.3 1.6-1.6 1.1-1.3 0.3-0.7 0.7-2.2 0.9-0.1 1.7 0.6 0.6 0.9z m-9.9-0.9l-0.7 0-0.1-0.8 0.8-2.2 0.4-1.4 0.7-0.1 0.3 2-0.6 1.5-0.8 1z m-27.2-14.7l0.9-0.5-0.1 1.2-0.4 0.8-0.7 0.1-0.2-0.9-0.6 0.3-1-0.6-0.3-1.2 0.9-0.9 0.8 0.5 0.7 1.2z m25.3 3.8l-1.1 0.5-1-1-0.2-1.4 1.4-2.1 2.4-2.3 0.4-0.7 0.6-0.2 0.5 1.2-0.3 1.2-0.9 1.1-1 2.7-0.8 1z m460.1-153.5l-21.8 0.5-7.9 2.8-4.7-0.3-39.6-14.9-4.1 2.6-0.4 1.2-0.4 3.4-0.4 5.8-0.6 2.8-1.1 1-3.1-0.1-1.2 0.5-1.8 2.1-1.8 3.1-1.5 4.2-1 5.2 0.4 7.7 2.4 5.6 3.4 3.6 3.6 2.3-0.4 2.2 1.2 0 3.4-1.5 2.2-0.4 1.3 0.2 1.2 1.3-0.3 1.7 0.3 0.5 1.4 0.8-0.2 1.3-1.9 5.1-0.4 0.9 0.1 1.2 0.5 0.4 2 2.4-0.2 1.7-2.7 3.1-1.2 2.2-0.1 1.6-0.7 3.1-1.2 1.2-2.7 1.2-4.5 0.4-1 1.5 1.2 3.6 1 2.1 0.6 0.9 0.5 1.2-1 2.1 5.6 4.8 2.9 1.6 1.4 0.1 1.3 0.5 0 5-1.4 3.6-1.7 1.4-4.3 1.3-11.6-1.5-8 2.5-2.1 0.2-2.1-0.7 0.4-2.3-0.7-0.7-1.9 0.1-0.2 0.6 0.8 5.6-1.3 0.5-0.5 0.8 1.6 2.7 1.9 1.9 7.4 10.6 1.7 6-0.9 3.5-3.2 4.6-4.3 2.1-8.3 0.9-8.5 3.8-4.1 0.6-39.1-5.4 0.5-2.9-2.5-3.5-2-4.5-3.4-10.3-4.2-6.5-3.4 0.6-2.9 3.8 0.4 0.8-1.7 1.2-1.7-0.3-9.5-5.7-2.8 2.3-21.1 35.1-6.1 7.4-23.7 10.1-59.6-3-2.2-1.6-0.5-3.5 0-6 0.4-9-3.2-1-23 12.1-10.4 2.9-23.3-1.5-10.8 3.8-17.8 19.5-6.3 9.2-2.8 3.2-0.7-3-1-1.9-1.2-0.7-2.3 0.7-1.2-1.6-1.6-1.3-4.4 0.9-1.8-0.2-1.2-1.4-1.6-3.5-1-1.2-3.3-1.7-3.6-0.7-3.6 0.6-3.2 1.8-2.4 3-1.1 1-1.8 0.4-1-0.8-0.4-2.2-0.1-8.5-0.2-1.6-0.8-0.9-5.7-3.2-1.2-1.7-1.5-3-1.1-3.2-0.4-4.1 0.9-5.7 1.3-4.3 5.2-11.6 1.2-4.2 0.8-1.4 1.5-1.3 2.5-0.7 0.9-1 0.3-2.9-1.5 1.8-4.8 2.8-1.5 0-0.7 0.5-0.3 1.7 0.1 2.4-0.4 1.4-2.2 2.3-4 10.1-2.2 2.8-2.3 0.2-1.9-0.4-1.8 0-2.1 1.8-0.7 2.8-0.6 1-1 0.6-4.4-2.2-2.6-4.2-1.1-0.9-3.5-1.6-3.6-3 0.9 3.1 0.3 3.3-0.7 2.8-1.7 1.5-1.7-0.9-1.7-2.6-1.4-3.1-0.9-2.6 0.1-5.5-3.6-6.3-2-8.8-2.4-4.4-1.9-4.4 0.2-5-0.2-3.4-2.3-11.1-0.9-3.2-1-1.5-2.2-2.4-0.9-1.4-0.9-2-4.9-15.1-2-2.8-9.5-3.5-3.2-3-2.4-3.8-3.1-11.4-0.8-5.9-1.4-5.1-0.3-2.5 0.2-2.2 0.8-3 0.3-2.4 0-3.1-0.5-4.1-0.1-3.1-0.4-2.3-1.7-4.2-0.4-2.8 0.9-5.2 2.2-3.4 2.7-2.1 2.3-1 0-3.6 2.1-2 2.8-1.5 1.9-2.2 0.1-2.6 4.9-3.5 1.9-2 0.9-3.6 0.1-3.9-0.3-4.1-0.7-4.1 0.9-3.7 0.7-4.3 0.3-4.5 0-4.8-1-8.5 0.1-1.7 2.9-5.1 1.3-4.1 2-0.6 2.2 0.1 1.3-0.7 0.4-2.1-0.2-1.7-3.7-11.4-2.5-6.3-1.9-3.4-3.6-4.9-5.1-11.9-2.3-3.1-2.8-1.2-1.6-1.6-2.1-3.7-3.4-7.6-0.6-2.1-0.4-1.7-0.2-2 0-3-0.3-2.6-0.8-1.4-0.9-1.1-2.5-4.8-2-2.6-1.6-3-0.7-4.7 1.2-1.8 1-2.3 0.8-2.5 0.8-3-1.7-1-0.5-1.6 0.3-4.6 0.8-3.7 1.7-2.1 10.4-4.9 2.5-4 2-7.3-3.1-2.1 0-5.5 1.1-6.6 0.2-5.4-1.2-1.7-2-1-6.2-1.1-6.2-4.1-3.7 0.4-3.6 1.7-3.4 0.2-3-4.1-1.2-5.8 1.1-4.6 2.1-4.2 1.7-4.9-1-2.9 2.3-2.7 3.3-2.5 1.7-2.4-0.3-5.8-0.7-3.7-2.2-6.3-0.7-3.9-1.1-9.6-1-3.8-0.3-3 0-14.2-0.5-5-0.2-5.9 0.4-5.6 1.6-4.3 3.1-2.6 6.4-2.4 3-2.6 2.3-4.7 0.1-4.2-1.8-3.1-6.3-2.5-8.1-10.3-2.5-2.1-6.8-6.6-0.7-2.1-0.4-2.1-3.6-14.5-1-2.5-1.3-1.8-3.1 0.1-7.7 5.6-2 0-0.6-1.3-0.7-0.7-0.2-2.2 0.1-1.3 0.4-2.2 0.5-6.1-0.1-2-0.9-1.8 0.6-5.7-1.4-4.2-4.2-5.2-1.2-2.4-0.4-2.1-0.3-2-0.6-2.1-1.3-1.9-13.6-9.5-2.6-3.6-3.8-8.3-2.3-2.5-5.4 2.3-2.7-3.3-2.6-4.4-2.6-2.7-1.7 0.1-1.6 0.5-1.7 0-3.8-2.8-4-0.4-5.9-3.4-7.2-0.6-0.4-0.6 0.1-2.4-0.3-0.5-6.2-2-21.1-0.2-3.1-2.8-0.1-1.1 0-1.8-0.1-1.6-1.1-1-1.1-1.5-1.2-2.3-2.6-3.8-0.6-1.5-4-5.3-16.6-4.9-1.9-7.8-5-3.6-8.2-8.5-7-2-2.9-2.9-1.1-2.4-2.7-7.8-0.6-2.8-0.8-2.6-1.9-1.2-6.5-0.1-0.8-0.4-0.4-0.9-0.7-2.2-0.5-0.5-1.1-1.6-5.4-10.3-5.8-6.2-7.4-7-15.1-6.3-2-3.1 0.3-5.2 2.8-1.5 1.5-4 0-4.6-2.1-3.5-4.3-1.4-6.3-6.3-10.9-1.8-4.8-4.6 8.5-16 2.6-1.4 26.2 16.2 3.6 1.1 2.5-1.8 5.2-11.2-11.2-24 2.7-8.6 1.5-4 1.7-2.4 19.6-13.3 29.7 5.1 2.2 2.1 25.8 50.7 7 13.7 12.6 14.2 1.2 3.1 1.3 6.4 1.1 2.6 7 12.9 7.3 6.2 1.3 2.6 2.3 22.8 1.1 4.8 1.8 0.7 10.4-4 2.5-0.2 2.4 0.5 23.3 12.3 15.3-2.7 4.7 1.4 2.4 2.7 7.1 12.2 2 0.9 25.9-17 14.6-2.3 8.5-5.2 3-10.1 1.8-11.1 5.9-4.2 7 0.1 18.4 10.1 3 5.3 2.1 2.6 13.3 9.1 13.6 4.8 16.6 5.8 8.2 7.1 6.9 10.9 2.9 7.7 1.6 2.1 2.4-0.5 2-3.3 1-4.5 1.2-4.2 2.7-2.5 2.4 0.1 5.8-4.2 2.5-0.6 1.8-1 1.3-2.5 1.1-5.1-1.1-2.1 0-1.5 0.6-1.4 0.4-2 0.2-11.7 0.4-5.5 1.2-5.1 3.5-7 16.9-15.7 4.3-2.3 4.3-1 11.1 4 2.3-0.6 2.2-2.3 1.3-3.5 1.1-3.9 1.5-3.3 2.9-4.3 1-2.5 0.5-3.4 1-3.2 3.8-3.8 0.8-3.2-0.3-1.8-0.8-1.3-1.7-1.9-0.7-1.3-0.1-1.1 0-2.1-1.4-4.1 0-1.6 0.7-2.4 0.1-1.8 0.2-8.5 0.2-1 0.6-2.1 0.2-2-0.3-1.8-1.2-4.4-0.5-1.5-1.4-6.7 0.3-6.9 3.4-20.7 1.1-3.6 8.2-15-0.4-2.2-2.8-10 2.2-6 1-1.6 0.9-2.1-0.1-6.2 0.6-3.1 1.3-2.9-0.5-1.8-1-1.5-0.3-1.6 1.2-2.9 5.5-4.4 2.4-4.3 1.6-5.7 0.1-6.2-2.2-5.9-1.5-2.4-0.3-2.6 0.7-2.8 1.1-3.1 2.2-3.8 2.4-1.9 13.7-3.8 1.5-1.1 1.2-2 1-2.4 4.2-6.9 4.4-9.7 9.3-10.7 2.6-5.4-1-4.9 0.9-2 3.2-4.6 1.8-5.1 3-1.8 15.8-2.6 5.9 1.8 8.4-2.6 2.9 1 5 3.8 2.8-0.9 2.4 0.2 6.7 5.2 1.7 0.3 19.3-7.3 3.7-5.1-0.7-0.6-1.3-1.8-0.6-0.6 1-2.3 1.3-0.7 1.5-0.2 1.4-0.6 5.9-7.7 10.7-5.5 0.7-4.6 3.8-5.7 4.8-1.6 11.6 2.5 6.8-4.4 2.8 1.2 2.7 4.7 4.9 11.7 17 30.6 2 2.2 17.5 7.9-0.1 9 2.2 5.3 3.5 2.8 3.5 1.5 29.7 14.7 29.6 14.7 1.4 2.7 5.2 20.4 12.8 31.7-10.5 22.7-33.2 41.3-1.1 3.4-0.8 5.7-1.5 19.1 0 4.1 1.1 2.6 10.4 13.6-11 10.9-10.9 4.1-23.4 17.3-4.2 0.4 0.2 4.6 1.3 2.4 1.6 1.2 18.3-1.4 7.6 1.6 6.6 7.5-4.9 19-2.8 8.1-23.4 46.4-1.1 3.2 0 3.7 1.2 5.9 1.8 7.1 16.7 63.9 2.4 5.1 3.4 2.5 26 11.2 26.1 11.1 2.9 2.2 2.7 3.9 7.5 16 3.5 7.4 15.5 33.2 5.7 7.5 27 25.7-2 3.2-0.9 2.4-0.4 3.1-0.8 15.5-0.5 3.1-2.4 10.8-1.5 4.4-36.2 49.8-1 2.4-1.1 4.2-0.5 1.7-0.9 1.5-4.7 5.6-30.1 56.7-4.4 19.4 3.5 16.3 21.2 36.4 3.8 12.8 2.6 4.4 0.3 2 0.1 2.3 0.4 2.4 0.8 1.7 10.4 17.7 0.9 3.9 1.1 9.6z" id="FIN3176" name="Lapland">
 </path>
 <path d="M503.8 1541l0.9 0.6 2 2.1-0.6 2.7-5.8 10.2-1.1 2.4 0.6 3.4 1.4 1.8 2.2 5.3 2.9 12.1 1.7 5.8-0.1 2.5-2 0.8-0.6 1.8 0.1 4.2 0.5 6.2 3.8 5.4 2.9 6.1 3.4 6.1 2.6 2.7 1.2 2.4-4-0.5-2.3 0.7-1 1.1 0.3 3.4 1 1.7 2.2 3 2.7 1.9 1.6 0.2 0.5 2.5-1.2 2.6-1.9 2.1-0.9 0.2-3.7-1.3-5.1-0.6-11 3.3-1 3.3 1.4 2.7 3.1 3.2 6 3.9 1.8 2.2-2.3 3.4 1.1 2.4 17 14.9 1.3 0.6 1.8-2.2 1.9-3 2.3 0.3 2.9 2.4 3.1 3.6 1.3 2.5 0.5 2.8 1 3.7 2.2 2.9 2 6.3 1.2 6.3-0.4 2.9-0.9 2 0.9 0.3 0.3 1.1-1.2 2.2-9.2 11.5 0.6 2.5 9.2 8.1 2.7 1.3 6.2 0.6 2.3 2-0.6 3.8-0.6 2.7-1 2.6 0.6 2.2 6.6 6.2-0.3 1.5-4.4 1.2-2.7 1.6-1.1 1.4-0.7 2.3 1.2 0.6-0.2 1.4-0.6 0.9-1.3 1.2-2.6 0.9-0.4 2.2 0.4 1 0.5 2.3 0.3 2.7 0 1.6 1 2.1 0.9 0.9-0.8 0.9-2.3-0.2-2.5-1.7-2.5-2.8-1-0.8-2.2-0.5-1.1 0.2-1.9 0.9-1.5 2.2 1.1 0.6-0.2 1.2-1.7 2.2-1.3 1.1-0.7 0.3-2.6-2.3-2.2 0.1-6 5.1-8.2 11.9 0.3 7 13 21.4-0.3 4.9-2.4 1.5-1.2 3.5-0.2 4.8-1 6 0.5-0.2 2.8 0.1 0.8 1.7 0 1.9-0.6 7.1 0.5 3.2 0.7 1.5 8.1 8.9 1.2 2.1 3 6.2 0.8 2.6 0 3-1.3 9.2-1.7 1.4-9.3-4.9-2 0.9-1.1 3-0.3 1.4 0.1 0.9-0.4 1.3-2.2 1.5-1 0.4-0.7-1.8-0.4-1.4 0.1-1.6 0.4-1.1-0.8-2.2-1.3-0.5-3.4 0.5-8 3.5-0.8 0.9-0.9 0.1-2.4-3.2-3.8-1.7-0.9-0.9-0.9-1.8 0.9-2.2 0.4-1.8 0.7-2.6 0.2-0.9-0.4-0.9-0.7-0.8-0.4-1.1-1.2-1.6-2 1.8-1.9-0.4-0.9-1.3-1.2-4.1-0.8-1.8-1.2-1.7-3.6-3.3-0.9 1-0.3 1.6-1 1.8-1.5 0.4-0.9-0.3-0.4-1.7 0.5-1.3 0.2-2.1-0.7-1.6-0.8-0.6-1 2.3-0.5 2.4-2.6 7.5-3.4 6.5-1.4 1.6-1.4-0.1 0.8-1.7-1.6-0.4-4.5-0.3-2.4 0.4-2.8 1.5-3.3 3.2-1.4 0.8-4.7-1.2-1.3 0.7-1.2 4.6-2.4 17.2-1.4 7.1-1.6 4.5-1.6 2.5-2.1 1.2-39.8 6.3-0.8-0.9-1.4-5.9-0.6-5.8-1.3-4.2-2-1.1-0.3-1 1.4-2.2-0.5-3.6-2.8-0.6-2.2 2.1-2 0.9-0.7-2.2-1.7-3.5-1.2-3.3 0.7-4.3 2.9-3.1 3.7 0.9 6 3 2-0.9 0.1-1.9 0.8-1.8-0.2-1.9-2.1-3-1.3-2.6-0.5-2.6 0.8-3.4 1.3-1.5 1.3 0.4 0.7 0.9 1.6 0.7 1-1.3-0.2-3-2.1-4.8-0.5-1.8 1.4-1.2-2-0.8-1.9-1.9-0.7-5.4 0.9-7.7 0.6-9.4-0.9-6.5-3.8-13.5-0.7-3.5-1.7-3.3-8.7 4.2-2.8 0.1-5.3-3.1-1.5-1.7-0.2-4.5 0.1-3.4 0.2-2-1.6-2.3-1.7-1.1-2.2-3.2-1.8-3.9-2.2-3.5-3.2-2.3-2.8 0-4.6 2.4-1.6 1.2 1.1 2.9-2.5 0.9-3.6-0.8-1.1-1.4-2.9-1.7-3.6-6.3-1.1-4.2-3.2-5.1-7.5-1.7-4.1-1.8-3.8-2.6-2.1-2-1.7-2.6-1.1-4.2-0.3-6.6 2.7-5.2 7.5-9.9 3.4-3.5 2.6-2 2.1-0.3 7.6 2.7 2-0.4 0.8-2-0.6-2.3 0-2.1 4-1.7 1.3 0.7 2.1 0.6 0.8 1.4 0.4 1.2 1.1 0.3 1.8-1.9 2.1-1.5 1-0.4 1.3-0.1 1-1.1-0.3-2.1 1.1-1.2 0.3-2.7 0.1-2 0.3-0.7-0.3-1.5 0.1-1.1 1.3 0.3-0.5-1.6 0.1-1.7 0.4-0.4 2-0.5 0.1-0.8-0.6-2.9-0.3-1.3 0-0.7 2.1 0.2 0.3-0.6 0.1-1.1-0.8-0.6-2.5 0.4-2.9-0.1-0.3-1.9 0.8-1.4 4.6-5-1.2-3.1-1.9-2.3-2.9-5-7.1-16.5-5.6-9.6 0-3.6 1.3-0.5 5.6-0.8 0.9-3-0.7-2.5-2.1-3.1-3.2-1.2-1.9-0.2-1.6-3.2 0-3.5-0.7-2.8-1.3-1.1-1.1-2-0.7-2.8-0.4-2.2-0.1-4.2-0.3-1.6-0.9 0.5-0.8-0.5-1.1-5.2 3.2-0.9 2.3-2.4 1.8-3.8 1.5-4.7 15.1-8.1 5.2 0.4 13.8 4.1 0.3-1.1-0.2-4.1 0.5-3.6 1.3-5.6 0.6-4.7-0.2-2.6-0.2-3.8 0.8-0.8 2.3-1.5 0.6-0.3-1.4-7.3-0.1-8.2 2.5-5.8 7.7-7.6 12.2-8.1 4.7-2.7 2.2-6 1.5-7.7 2.7-7.6 3.6-4.4 3.8-0.9 7.2 1.8 4.3 2.1 7.9 8.3 4.2 2 22.4 2.9 4.6 2.9 7.3 9.4 4.1 3.8 5.4 1.7 5.3-0.9 9.9-4.4z" id="FIN3177" name="Central Finland">
 </path>
 <path d="M706.2 1480.1l2.9 2.6 5.1 7.3 2.2 1.7 7.3 0.8 2.7 1.2 1.5 1.1 1 1.7-1.7 3.5 1.7 7.1 0.7 5.5 1.7 4.7 2.4 2.4 1.4 2.4-1.1 0.4-2 0.3-1.8 1.2-0.9 1.5 0.5 3.8 0.9 2.1 1.1 4.5 0.8 4.7 1.2 4.4 1.9 3.3 2.5 2.8 4 3.4 0.8 2.8-0.4 1.9-0.2 1.7-0.2 4.7-0.4 2.6-1.1 2.4-3 4.2-0.4 1.4 1 1.3-0.4 1.2-4.8 3.9-0.5 1 1.2 0.8-0.3 1.3-3.6 5.6 2.2 2.4 2.8 2 4.3 4.6 14.3 21 16 12.3 0.5 3.5-1.1 1.2-5.2 3.1-1.2 1-0.6 1.9 2.3 2.5-0.3 1.1-0.9 0.4-1.6-0.2-1.5-1-0.7-0.8-0.5 1.6 0.6 2 1.4 1.9 2.9 2.1 2.1 4.2 2.6 2.8 4.5 2.5-0.6 2.5-11.5 9.8-2.9 1.3-4.1-2.5-3.7-4.2-3.9-2.5-2.4 0.5-2.3 6.4-1.6 2.5-4.9 2.9-2.4 4.4 5.1 10.4-1.4 1.3-0.7 0.8-1.1 2.2-0.8 3.4-0.9 2.8-1.2 2.8-1.4 2.4-1 1.3 2 0.2-1.4 1.8-1.8 1.1-9.2 0.7-1.5 1.2 5.2 2-0.1 2.4-1.3 0.7-0.8-1-7.3-1.6-1.7-1.7-0.4 1.2 0.6 1-1.1 7.3-0.9 2.7-1 1-1 2.1 1.7 2.8 0.5 2.3-0.8 2.5-1.9 0.6-6.7-2.5-0.9 1.1 0.4 1.1 1.4 1.2 0.3 0.9-0.2 1.1-0.7 0.5-0.7-0.1-1.2 0.3-1.2 1.1-0.6 0.9 0.2 1.4 0.8 0.4 1.1 1.2 0.7 1.9 0.2 1.4 0.7 1.7 2.5 1.7 0.5 0.3-0.4 2.6-1.2 1.5-3.2 0.8-3.3-0.4-2.7 0.4-10.9 7.3-1.4 3.7-0.6 2.3-3 1.1-5.6-0.3-1.3 0.9 2 0.1-0.4 2.1-0.9 1.2-1.9-0.6-2-2.4-2.3-2-1.5 0.8-3.2 0.2-0.9 0.3-6.8-7.8-1.9-4.1 1.9-4.7-2.6-1.3-4.2-1.1 0.3-2-2.1-1.6-11.6-11.6-3.2-3.8-1.6-1-2.6-2.5-1.8-0.5-2.1-2.6-2.9-1.6-0.5-0.7-3-0.8 0.9 3.2-0.6 1.2-0.6 0.4-3.6 3.3-2.4 1-2.2 0.2-4.7 2-1.7 0-0.5-1.1-1.8-2.5-1.6-0.8-1.7-0.4-4.9 2.8-3.3 0.4-4.4-1.8-1.3-0.1-1 0.6 0.1 3 0.6 1.9-1.4 0-6.5-4-1.8 0.1-1.8 1.5-1 1.5-0.8 1.8 1.2 0.6-1.3 1.8-1.7 1-2.9 0-5.3-3.7-2.3-2-6.2-0.6-2.7-1.3-9.2-8.1-0.6-2.5 9.2-11.5 1.2-2.2-0.3-1.1-0.9-0.3 0.9-2 0.4-2.9-1.2-6.3-2-6.3-2.2-2.9-1-3.7-0.5-2.8-1.3-2.5-3.1-3.6-2.9-2.4-2.3-0.3-1.9 3-1.8 2.2-1.3-0.6-17-14.9-1.1-2.4 2.3-3.4-1.8-2.2-6-3.9-3.1-3.2-1.4-2.7 1-3.3 11-3.3 5.1 0.6 3.7 1.3 0.9-0.2 1.9-2.1 1.2-2.6-0.5-2.5-1.6-0.2-2.7-1.9-2.2-3-1-1.7-0.3-3.4 1-1.1 2.3-0.7 4 0.5-1.2-2.4-2.6-2.7-3.4-6.1-2.9-6.1-3.8-5.4-0.5-6.2-0.1-4.2 0.6-1.8 2-0.8 0.1-2.5-1.7-5.8-2.9-12.1-2.2-5.3-1.4-1.8-0.6-3.4 1.1-2.4 5.8-10.2 0.6-2.7-2-2.1-0.9-0.6 2.7-5 0.7-2 0.5-2.5 1-7.3 0.7-2.9 1.9-3.7 2.2-1.8 3.8-1.9 0.3-6.9-3.4-32.8-1.3-5.2 5.5-9.7 36.1-31.4 16.2-5.8 47.1 12.6 2 1.8 2.4 3.7 0.8 0.3 1.5 0.1 2.5-0.6 0.9-1.1-0.4-0.7 2.5-0.2 2.6 0.8 8.3 5.9 9.4 3.4 24 22.8 3.5 1.9 3.3 2.7 6.3 11 6.8 4.5 1.6 2.8 1.5 1.7 2.4-1.3 1.8-2.6 1.8-3.6 1.6-4 1.3-3.9z" id="FIN3178" name="Northern Savonia">
 </path>
 <path d="M831.4 1109l-0.4 1.2-0.8 8.2 1.1 19.4-0.9 8-9.6 13-3.2 7.4 4.3 4.4 12.7-0.5 6.1 2.7 0.6 8.3-0.9 1.8-1.1 1.4-0.8 1.5-0.1 2.1 1.1 1.9 1.6 0.4 1.1 0.7-0.4 3-2.3 3.1-13.9 3.4-3.7 3.4-2.6 6-0.9 9.2 4.1 18.2 5.9 14.6 7.5 9.3 8.9 2.3 16.8 0.2 3.6 1.8 1.5 1.7 0.2 1.3-0.5 1.6-0.4 2.1-0.2 2.7-0.2 1.3 0.3 1.2 1 2.4 1 1.6 3.6 4.2 1.5 4.1-0.6 4.2-1.9 3.5-2.2 2.3-15.5 7.8-0.7 0.8-0.3 1.2 0.4 0.7 0.8 0.7 0.2 3.7 0.3 1.9 0.7 2-0.3 1.2 0.3 1.2 0.9 0.5 0.2 0.5-0.3 1.4 4.2 2.7 3.1 4.1-0.7 5-2 5.4-0.7 5.5 1.8 3.9 3.7 3.6 6.5 4.1 14.3 5.1 4.5 3.5 2.6 3.7 2 3.9 2.3 2.9 5.2 1.5 3 1.9 2 3.1-0.7 4.4-1.6 4.1 0 3.5 1.1 3.4 1.6 4 2.2 8.9-0.6 7-2.5 6.1-4 6.3-16.4 19.8-5.8 13.5-5.8 7.9-13.7 5.9-4.8 3.5-1.5-1-4.8 0.8-13.4 6.8-1.5 0.2-0.7-0.3-1.4-1.9-0.7-1.5-4.5-26-1.3-2.3-1.4-0.9-65.8 6.5-33.1-8.6-4.9 0.3-4.8 2.2-0.3 3.8-0.6 2.3-1.3 3.5-7.6 14.8-1.3 3.9-1.6 4-1.8 3.6-1.8 2.6-2.4 1.3-1.5-1.7-1.6-2.8-6.8-4.5-6.3-11-3.3-2.7-3.5-1.9-24-22.8-9.4-3.4-8.3-5.9-2.6-0.8-2.5 0.2 0.4 0.7-0.9 1.1-2.5 0.6-1.5-0.1-0.8-0.3-2.4-3.7-2-1.8-47.1-12.6-6.2-5.3-1.4-3.9-0.8-8.7-0.6-26.3-1.2-4.1-3.4-0.5-2-0.8-0.8-0.6-0.7-1.7 0.5-5.7-1.2-1.6-1.3-0.2-6.3 0.3-3.3-0.6-2.3-1.6-4-4.3-1.2-0.9-0.1-4.8-0.7-4.4-4.7-7.7-8.8-8.1-2-2.4 1.8-1.8 0.6-1 0.2-1.6-0.5-0.3 2.9-1.2 1.3-1 6.2-6.8 2.4-1.3 7-1.7 1.3-1-1.1-0.5-0.3-1 1.2-0.8 1.2-0.4 1.3-2.7 0.9-3 1.4-1.4 2.1-0.5 0.8-0.6 1.3-2 0.2-1.4-0.5-1.7 0.2-1.7 11.3-1.1 3.5-1.4 5.6-6.9 1.6-1.3 1.6-2.1 0.4-4.2-0.1-1.1-1.4-0.1 1.3-4.2 2-3 5.8-5.9 11.2-7 5.9 0 10.6 2.9 3.4 0 2.4-1 1.8-3.2-1.3-0.8 2.1-2 0.3-2.2-0.5-2.4-0.2-2.2 0.6-4.7 0.7-3.2 0.4-1.8 0.2-2-1.5-1.5-0.6-0.8 1-2-1.2-2.7-4.3-5.9-4.7-5.2 0.1-7.1 2.3-4.3 5.1-3.7 36.6-4.7 8.6 3.7 2.2-0.4 1.8-3.1 1.2-4.6 1-5.2 1.2-5.1 3.5-7.9 4.1-4.4 4.8-2.1 43.5-9.4 5.5-2.6-0.2-3.6-0.5-0.7-2.9-0.6 0.8-0.2 1.3-1.1 2-3.2 2.9-5.7 0.7-1.9-0.9-2.3 3-2.5 24.3-11.1 15.3-1.8 7.4-4.2 4.5-10.5 3.3-0.5 6.4 2.1 6.2 3.4 6.2 1.6 22.1-1.1z" id="FIN3179" name="Kainuu">
 </path>
 <path d="M333.4 1323.3l-0.3 0.8-0.9-0.1-0.5-0.7 0.5-0.6 1.2 0.6z m12.5-35.9l-0.4 0.3-0.3-1.7 0.4-0.4 0.6 0.4-0.3 1.4z m4.3-5.4l-0.2 0.6-1.7-0.1 0.3-1.1 0.9-0.5 0.7 1.1z m29.6-48.3l-0.8 0.9-1.7-0.4 0.8-2.2 0.7-0.7 0.8 0.1 0.7 1.4-0.5 0.9z m49.2-16.3l0.6 0.2-0.8 0.8-0.9-0.9-0.9 0.1-1.1-0.4 0.2-0.5 1.8 0.2 1.1 0.5z m-40.5-14.4l0.9 1.4 2.1-0.3 2.7 0.3 5.2 0.9 3.7-0.5 2.6 3-3.1 1.9-6 0-7.7-2.3-5.3 0.5-1.6 4.1-7.3 4.5 2.6 5.9 5.6-0.7 1.4 1.3-1 1.1-1.1 0.2-1-0.1-1.2 0.2-0.8 0.6-0.9 1.6-0.9 0.7-1.5 0.5-2-0.2-1.1-1.4 0.9-3.2-0.5-0.7-0.7-2.2-1.3-2.2-2.3 5.3-2.4 0.9-3.2-5.3-1.6-3.7-0.9-2.8-0.6-3.1 2.1-2.7 6.2-6.6 7.9-0.7 8.6-2.5 4.4 1.7 1.3 3.2-2.2 1.4z m42.4-4.7l-0.8 1.7-1.6-1.3-0.2-2.7 1.5-0.3 1.3-0.2 0.6 1-0.1 0.6-0.7 1.2z m-9.1-0.1l-0.4 0.1-1.6-0.8-1.7-0.5-0.3-0.5 0.3-1.1 0.5-0.7 1.5-0.6 1.2 0.6 0.6 2.3-0.1 1.2z m-3.8-4.7l-0.9 0.1-0.8 0.5-0.9-0.5-0.6 0.1-0.4 1-0.7 0.9-0.8 0.2 0.4-1.3 0.5-0.6 0.5-1 1.2-0.8 0.8 0.1 1.3 0.8 0.4 0.5z m-6.1-4.7l-0.8 0.1 0.6-1.9 0.4-0.6 0.5 1-0.2 1.1-0.5 0.3z m7.9-28.5l-1 1-0.9-0.5 0.6-1.5 1.1-0.2 1.1 0.2-0.9 1z m6.3-15.6l-2.3 1.9-1.3-1.3-0.7-0.2 1.1-0.7 1.3-0.4 1.1-0.1 0.8 0.8z m-41.7-9.1l-0.7 0.1-0.4-1.3 0-1.8 2.7-0.4-0.2 1.3-1.4 2.1z m15.6-11l1.5 1.3 0.4 0.6-0.8 1.4-0.6 0.1-0.7 0.9-0.5-0.5-0.1-1 0.4-1.2-0.5-0.6 0.9-1z m30.5 0.2l0.1 1.1-0.2 0.5-1.2-1.8 0.7-0.6 0.6 0.8z m384-225.2l0.5 4.4 1.7 7.9 2.1 7.3 5.3 13.2 12.9 24.2 7.5 10.7 2.3 5.7 1.9 8.9 2.5 17.4 0.9 3.9 3.6 9.4 1.1 3.6 2.7 11.2 3.3 9.5 0.7 4 2.6 20.6 0.4 5.5-0.2 4.8-1.4 2-3.1-1.1-5.6-3.7-21.8 6.7-5.6 4.1 2.7 4.6 6.8 5.2 2.9 4.4-1.2 2.9-7.3 8.9-1.3 3.2-22.1 1.1-6.2-1.6-6.2-3.4-6.4-2.1-3.3 0.5-4.5 10.5-7.4 4.2-15.3 1.8-24.3 11.1-3 2.5 0.9 2.3-0.7 1.9-2.9 5.7-2 3.2-1.3 1.1-0.8 0.2 2.9 0.6 0.5 0.7 0.2 3.6-5.5 2.6-43.5 9.4-4.8 2.1-4.1 4.4-3.5 7.9-1.2 5.1-1 5.2-1.2 4.6-1.8 3.1-2.2 0.4-8.6-3.7-36.6 4.7-5.1 3.7-2.3 4.3-0.1 7.1 4.7 5.2 4.3 5.9 1.2 2.7-1 2 0.6 0.8 1.5 1.5-0.2 2-0.4 1.8-0.7 3.2-0.6 4.7 0.2 2.2 0.5 2.4-0.3 2.2-2.1 2 1.3 0.8-1.8 3.2-2.4 1-3.4 0-10.6-2.9-5.9 0-11.2 7-5.8 5.9-2 3-1.3 4.2 1.4 0.1 0.1 1.1-0.4 4.2-1.6 2.1-1.6 1.3-5.6 6.9-3.5 1.4-11.3 1.1-0.2 1.7 0.5 1.7-0.2 1.4-1.3 2-0.8 0.6-2.1 0.5-1.4 1.4-0.9 3-1.3 2.7-1.2 0.4-1.2 0.8 0.3 1 1.1 0.5-1.3 1-7 1.7-2.4 1.3-6.2 6.8-1.3 1-2.9 1.2 0.5 0.3-0.2 1.6-0.6 1-1.8 1.8 2 2.4 8.8 8.1 4.7 7.7 0.7 4.4 0.1 4.8 1.2 0.9 4 4.3 2.3 1.6 3.3 0.6 6.3-0.3 1.3 0.2 1.2 1.6-0.5 5.7 0.7 1.7 0.8 0.6 2 0.8 3.4 0.5 1.2 4.1 0.6 26.3 0.8 8.7 1.4 3.9 6.2 5.3-16.2 5.8-36.1 31.4-5.5 9.7 1.3 5.2 3.4 32.8-0.3 6.9-3.8 1.9-2.2 1.8-1.9 3.7-0.7 2.9-1 7.3-0.5 2.5-0.7 2-2.7 5-9.9 4.4-5.3 0.9-5.4-1.7-4.1-3.8-7.3-9.4-4.6-2.9-22.4-2.9-4.2-2-7.9-8.3-4.3-2.1-7.2-1.8-3.8 0.9-3.6 4.4-2.7 7.6-1.5 7.7-2.2 6-4.7 2.7-2.6-5.3-21.1-24.7-12.7-11.2-6-8.9-10.5-22.2-3.7-5-4.7-3.3-7.8-3.7-2.6-3.3-0.2-1.8-1.2-5.1-0.3-1.7-2.8-2.1-4.4-4.9-1.6-3.9-2.3-9.5-0.8-5-5.2-6.3-14.1-6.9-16-11.9 1.6-2.2-0.6 0 0.2-3.3 0.4-3.1 1.1-1.5 2 1.4 1.4 0.1 4.2-2.5 1.3-1.3 0.7-1.9 1.8-6.7 1.9 0.4 3.9 2.4 1.7 1.7-0.8-2.5-0.6-2.7-0.3-3 0.4-3.3 1.1-3.2 2.7-3.9 1.2-3.1 1.1-6.3 0.8-2 1.9-1.8 3.9-1.7 1.5-1.9-0.4-3.6 1.2 0.3 1-0.2 1-0.7 0.9-1.6 0.3 0.3 3.7-2.4 3.3 0 0.5-0.8 0-3.6 0.1-1.7 0.5-1.3 1.1-0.4 2.6 0.6 1-0.8 0.6-1.6 0.5-2.7 0.4-1 1.9-1.5 1.8-0.5 1.6-1.3 1.6-3.8-0.1-1.5-0.4-1.9-0.1-1.7 1.8-1.5 0-1.7-0.3-1.6-0.3-0.4 0.7-4.3 0.7-2.4 2.3-4.9 0.5-1.6 0.8-3.5 0.6-0.7 1.1-0.5 2.7-3.9 3.7-2.3 1.7-1.6 1.5-3.4-1.3-3 0-1.3 1-2.4 1.3-1.3 2.8-2.2-3.5-3.3-1-1.9 1.6-0.8 2 0.3 7.3 4.1 0.9-0.1 0.8-1.2 0-1-1-1.6-0.3-1.2 0.7-3.7 1.7-1 3.9-0.3 0.4-4.2 3.4-2.2 11.3-1.6 16.1-9.2 1.9-0.5 1.6 0.8 0.8 2 0.8 2.5 1.2 2 0.7 0.1 1.4-1 1 0.9 0.2 0.9 0.4 3.1 0.3 1.1 1.4 2.4 1.4 1.7 1.6 0.9 2.2 0.3 0 1.4-0.9 0-0.7 0.3-1.5 1.1 3.1 1.4 8.7-2.8 0.7-0.8-1.1-4 0.1-1.9 1.4-6.7 0.1-1.4-0.8-2.8-1-0.1-1.2 1-1.3 0.5-1.3-0.9-2.4-2.9-3.6-1.4-1.6-2.1-2.9-6 1.8-3-0.7-1.3 1.6-0.9 9.2 1.5 1.7 1.4 3.2 3.7 2.1 1.8 2.1 0.6 1.5-0.9 0.5-2.9-0.7-2.9-1.1-1.9-0.7-2.1 0.6-3.4-0.6-1.2-0.3-1 0-1 0.3-1.3-2.2-2.7-1-1.8-0.5-2.1-0.1-2.3-0.4-1.7-0.6-1.4-0.7-1.3-2.9-2.8-10.3-3.1 0.6-4.7 0.7-2.4 3.1-3.4 1.2-1.8 0.9-2.3 0.3-2.9-0.5-3.3 1.1 0.1 1.1-0.1 1.1-0.5 1-1.1-1.8-1.2-0.7-0.2 0.8-3.4 0.5-1.1-1.6-1.2-0.7-0.3-0.8 0 1.3-2.2 1.2-6.8 1.2-3-1.3-3 1.4-0.8 1.2-2.2-6.3-7.4 1.3-0.8 2.4-0.1 1.3-0.8 0.8-1.2 1.6-3.3 0.8-1.3-1-3.7 1.2-8.1-0.6-4.1-2.6-5-2.7-4-6.8-7.1-2-1.2-2.4 0.1-2.2 0.7-2-0.4-2.1-3.5-0.8-3.3 2.8-3.2 6.3-9.2 17.8-19.5 10.8-3.8 23.3 1.5 10.4-2.9 23-12.1 3.2 1-0.4 9 0 6 0.5 3.5 2.2 1.6 59.6 3 23.7-10.1 6.1-7.4 21.1-35.1 2.8-2.3 9.5 5.7 1.7 0.3 1.7-1.2-0.4-0.8 2.9-3.8 3.4-0.6 4.2 6.5 3.4 10.3 2 4.5 2.5 3.5-0.5 2.9 39.1 5.4 4.1-0.6 8.5-3.8 8.3-0.9 4.3-2.1 3.2-4.6 0.9-3.5-1.7-6-7.4-10.6-1.9-1.9-1.6-2.7 0.5-0.8 1.3-0.5-0.8-5.6 0.2-0.6 1.9-0.1 0.7 0.7-0.4 2.3 2.1 0.7 2.1-0.2 8-2.5 11.6 1.5 4.3-1.3 1.7-1.4 1.4-3.6 0-5-1.3-0.5-1.4-0.1-2.9-1.6-5.6-4.8 1-2.1-0.5-1.2-0.6-0.9-1-2.1-1.2-3.6 1-1.5 4.5-0.4 2.7-1.2 1.2-1.2 0.7-3.1 0.1-1.6 1.2-2.2 2.7-3.1 0.2-1.7-2-2.4-0.5-0.4-0.1-1.2 0.4-0.9 1.9-5.1 0.2-1.3-1.4-0.8-0.3-0.5 0.3-1.7-1.2-1.3-1.3-0.2-2.2 0.4-3.4 1.5-1.2 0 0.4-2.2-3.6-2.3-3.4-3.6-2.4-5.6-0.4-7.7 1-5.2 1.5-4.2 1.8-3.1 1.8-2.1 1.2-0.5 3.1 0.1 1.1-1 0.6-2.8 0.4-5.8 0.4-3.4 0.4-1.2 4.1-2.6 39.6 14.9 4.7 0.3 7.9-2.8 21.8-0.5z" id="FIN3180" name="Northern Ostrobothnia">
 </path>
 <path d="M217.1 1463.6l-0.7 0.3-0.8-0.4 1.1-1.4 0.5 0.8-0.1 0.7z m28.9-23.4l-0.8 2.3-1.4-1 0.4-1.4 0.4-0.4 1.4 0.5z m-8.2 2.8l-1.1 0.1-1.5-1.7-0.3-2.1 0.3-0.9 1-0.3 0.5 0.8 0.6 1.9 1 0.8-0.5 1.4z m27.8-31.9l0.2 0.9 0.5 0.4-0.3 0.8-0.8 0.2-0.7-1.9 1.1-0.4z m2.2 3.2l-0.9-0.6-0.5-2.1-0.1-0.9 0.4-0.2 0.6 0.7 0.5 3.1z m9.3-15.3l-0.3 0.2-1.5-1.3-0.3-1.4 1.1 0.7 1 1.8z m125.6 141.7l-12.2 8.1-7.7 7.6-2.5 5.8 0.1 8.2 1.4 7.3-0.6 0.3-2.3 1.5-0.8 0.8 0.2 3.8 0.2 2.6-0.6 4.7-1.3 5.6-0.5 3.6 0.2 4.1-0.3 1.1-13.8-4.1-5.2-0.4-15.1 8.1-13-6.7-3.8 0.2 1.1-1.8 1.2-1.3 2-1.6-2.1-3.4-8.3-9.4-6.2-5.1-15.7-3.8-3.4-1.5-3.1-2.5-2.7-3.1-2.5-3.8-2.1-4.4-1.8-4.8 0.9-0.4 0.1-0.7-2.2-4.2-1-3.5-2.1-18-1.2-4.1-2-2.3-1.7-0.8-1.9-1.9-0.9-5.8-0.1-1.5-2-1.4-4.8-0.1-2.8-0.8-1.7-0.8 1.6-1 0.4-0.4-0.5-2.7 0.3-0.6 2-1.4 0.2-0.6-1.1-3.7 0.1-0.9 0.7-0.5 1.4-0.7 0.8 3.1 0.9 2.6 2.6 1.1 6.1-3.6 9.6-2.2 1.4-1-1.7-4.2-11.3-10.7-8-5.4-2.5-0.3-2.4 5.1-1.9-0.3-2.9-1.6-3.2-1-3.7 0.9-2.6 2.4-2.1 2.7-2.2 1.8-4.4-0.8-14.7-13-1.3 0.8-1.1 0.3-0.9-0.3-0.8-1 0.3-2.7 0-1.1-0.3-1.9 5.1-5.4 1.4-2.4 1.1-0.9 4.3 1.6 1-0.6 0.9-1.2 1-1.1-1.1-1.2 0-1.3 1.2-1.6 1.2-0.7 2.7-0.8 7.1 0.4 2.8-1.1 1.9-3.5 2.2 2.5 2-0.4 1.9-2.1 2-2.8-2.8-2.9-1.3-1.7 0-1.9 0.7-2.7-0.2-2.1-0.5-1.8-0.3-2 0.2-1.3 1.1-9.3 1.3-1.7 1.8 0 3.1 1.7 0.6 0.5 1 1.6 0.9 0.6 1-0.2 0.8-0.7 0.9-0.5 2.9 2.1 6 0.9 1.4-2.2-1.3-4.8-2.2-4.9-1.4-2.5 0.7-2.2 1.1-0.3 2.6 1.1 0.7-0.8 2.1-3.6 1-1.2 0.4-2.8 1.8-2.5 2.4-2.6 16 11.9 14.1 6.9 5.2 6.3 0.8 5 2.3 9.5 1.6 3.9 4.4 4.9 2.8 2.1 0.3 1.7 1.2 5.1 0.2 1.8 2.6 3.3 7.8 3.7 4.7 3.3 3.7 5 10.5 22.2 6 8.9 12.7 11.2 21.1 24.7 2.6 5.3z m-122.9-150.9l0.6 1.6-1.1-0.4 0-1 0.5-0.2z m-9.8-0.2l-0.4 0.3-1.1-0.8 0.1-0.6 0.9-0.3 0.5 1.4z m10 2.9l-0.5 0.6-0.9-0.4-0.9-2.2-0.2-1 0.2-1.5 0.7 1.9 0.8 1.5 0.8 1.1z m-2.9-3.4l-0.2 1.3-0.9-0.6-1.2 1.2-2 0.3-0.6-0.8 0.1-0.9 1 0.1 0.8-1.5 1-0.3 0.9-1.2 0.5 0 0.4 0.7 0.2 1.7z m-0.2-3.7l-0.5 0.8-0.4-0.5-0.1-1.3 0.6-0.1 0.4 1.1z m0.5-4.3l-0.8-0.4 0.2-1.1 0.6 0.6 0 0.9z m-12.7-16.7l-0.6 0.1 0.2-1 0.7-0.1-0.3 1z" id="FIN3181" name="Central Ostrobothnia">
 </path>
 <path d="M44 1719.4l0 1.8-0.7 3.1 0.3 1.6-0.2 1.2-1.9-1.1-1-1-0.2-0.8 0.1-2.3 0.2-1.3-0.1-0.6 1.6-2.1 0.7-0.3 0.7 0.7 0.5 1.1z m-1.7-28l-0.4 0.7-0.7 0-0.8-1-0.3-1.9-0.1-3.2 0.2-1.3 0.8-0.5 2.1 1.7 0.5 1.7 0.1 1.2-0.7 1.8-0.7 0.8z m11.2-31l1.7 1 0.3 0.8-0.2 2.3-1.5 1.9-5.6 1.2-1-0.9-1.8 0.9-1-1.1-0.1-0.7 1.5-2.1 2-0.1-0.1-1.1 0.3-1.2 0.8-0.7 1.8-0.2-0.1-1.2 0.3-0.1 1.7 1.2 1 0.1z m3.7-1.5l-0.9 0.3-1.1-0.8-0.9-0.8-0.2-1.3 0.1-1-2.8-3.4-0.4-1.5 0.3-1.7 0.7-0.6 2.2 1.2 0.2 0.9 2.5 4.8 0.3 1.7 0 2.2z m-13.4-8.8l-0.7-1.4 0.9-0.7 0.4 1.7-0.6 0.4z m-11.9-8.5l-0.4 0.1-0.8-1.2 0.9-0.1 0.4 0.4-0.1 0.8z m-10.4-3.4l0.3 0.6-0.7 0.9-0.1 0.8-0.8-0.2-0.1-1.1-0.2-0.6 0.2-1 0.6-0.5 0.8 1.1z m33.5 0.2l0.5 2.7 0.1 2-0.5 0.9-0.7 0.2-1.6-1.6-0.8 0.8-1.3 0.8-2-1.4-0.9-2 0-0.8 0.5-0.2 0.8 0.9 0.4-0.8 0.4-1.6-0.6-0.8-1.1-1-0.8-1.7-0.2-1.6 0.6-1.1 0.8-0.8 0.6 0 0.7 1.2 2.3 1 1 1 1.1 1.7 0.7 2.2z m0.2-7.1l0.3 0.3 0.8-0.4 0.5 1.9 0.9 0.8 0.5 0.7 0 1.1-0.2 0.8-0.6 0.3-0.9-1-0.7-1.5-2.4-0.4-0.6-1.3 0-1.6 0.3-2.4 0.5-0.6 0.9 0.8 0 0.6 0.7 1.9z m-36.7-19.9l-0.7 1.3-0.4-1.1-0.6 1.6-0.4-1.3 0.8-2.7 0.8-0.6 0.5 2.8z m-13.7-26.6l-0.1-0.9 1.4-0.7-0.3 1.2-1 0.4z m37.8-9.5l3.7 3.2 3.6-0.4 3.6-1.4 4 0 0 1.2-1.4 0.7-1.1 1.5-1.9 5 0.4 1.9-0.4 0.9 1.4 0.8 5 0.4 0.7 0.5 0.6 0.8 0.7 0.4 0.7-0.9 0.3-1.5-0.7-2.2 0.1-1.1 2.2-2.5 3.7-1.8 3.7 0 2.3 2.8-0.6 2.7 0 2.6 0.4 2.4 0.8 2.1-2.2 1.2-2.4 0.5-1.3-0.7 1.6-2.5-1.7-0.1-6.5 5.7 0 1.4 0.6 0.2 1.9 1.1-1.6 1.7-1.6 0.9-3.7 0.2-1.1-1.5-1.1-2.3-1-2.8-1.7-1.6-1.2 0.6-1.3 1.3-1.3 0-1.3-3.3 1.9 0 0-1.5-1.1-1-2.6-3.4-1-1.7-0.5-1.9-1.4-6.5-0.2-2.1z m54.8-6.4l0.5 0.7 0.8 1.9 0 1.4-1.4 0.9-0.3 1.5 0 1.6 0.2 2.5-0.2 2.4-0.6 0.1-1.8-0.9-1.1-1.4 0-3.7 0.1-0.8 0.7-1.1-0.7-0.9 0.7-0.5 0.2-0.7-1-0.8 0.7-0.4 1.1-1.7 1.2 0.5 0.3-0.9 0.6 0.3z m32.2-0.6l2.5 4.1-0.3 1.5-1 2.5-1.6 1-1.4-0.1-0.6-0.6 0.1-1.5-0.4-0.6-0.6 0.4-0.3 1.9-0.9 0.5-0.6-0.5-0.3-1.4 0.3-2.4 1-2.4 1.2-0.6 1.8 1.3 0.8-0.3-0.4-1-1.3-1.4-0.4-0.9 1-0.3 0.7 0.8 0.7 0z m-29.3 1.5l0.4 0.9 1.6-0.5 0.3 0.2 2.7 3.3 0.2 1.5 1-0.3 0.5 0.9 0.1 1-1 0.5-0.8 1.1 0 0.9-3.4-2.4-0.3-0.8-1-4.1-1.5-1.7-0.7-1.4-0.3-1.3 0.4-0.5 1.5 1.5 0.3 1.2z m48 0.2l0.7 1.4-0.2 0.9-0.9 1.9-1.1 2.7-1.2 1.3-2 0-2.8-3.1-3.8 0.9-0.1 0.4 2.3 0.7 1.8 1 0.4 2.2-0.5 1.3-1.2 0.5 0 0.6-0.7 0.1-4.7-2.2-0.5-1 0.3-0.8-0.4-0.8-1.1-0.9 0.2-1 1.3-0.9 0.5-1.3-0.5-1.9-0.9-1.8-0.4-1.2 0.9-0.6 1.3-0.3 1.6-1.2 1.2 0.6 0.8 0.1 0.7 0.7 0.7 1.4 1 0.9 0.4-0.2 0.1-1 0.5-0.5 0.8 0.3 0.7 0.6 0.4 0.9 0.5 0.1 0.6-0.6 0.5-1 0.2-1.5 0.5-1.6 0.5-1.1 0.9-0.1 0.4 1.6 0.3 3.5z m-80.3-0.4l-3.6 5.7-0.3-3.3-0.9-0.4-1.2 0.8-1.3 0.1-4.4-5.5 0.8-1.2 1.1-0.1 2.4-1.2 3.1-3 3.2-1.6 2.6 2.9-0.1 3.2-1.4 3.6z m64.9-14.1l0.9 0.3 1.5 0 0 0.7-0.7 0.5-0.8 0.2 0.5 2-0.8 1.4-1.6 0.5-2.9-1.7-1.3 0.5-1 1.9-0.4 1.2-1.2 1.5-1.7 1.6-0.8 0.3-0.7-0.4-0.2-0.9 0.8-2.3 1.4-3.2 1.1-1.7 0.3-0.9 0.9-1.4 1.7-0.1 1.4 0.4 1.4-0.9 1.3-0.1 0.9 0.6z m-35.3-2.5l0.5 1 0 1-0.9 0.6-0.5 1-1.5-0.2 0.2-1.2-0.6-0.9-0.9 0.2 0.1-1.5 0.9 0.5 1.8-0.6 0.9 0.1z m-56.5-6.8l1.3 0.2 0.6 0.6 0.8-0.1 0 0.7-0.7 0 0.1 1.2-0.4 0.5-1.2-0.2-0.7-1.5 0.2-1.4z m70.1-1.2l-0.3 0.5-2.6-0.2-0.4-0.4 0.8-0.6-0.4-2.2-1.2-0.9 0.7-1.5 0.4-0.4 0.6 0.1 1.4 1.6 1 1.8 0 2.2z m56.6-27l-0.8 0.1-0.3 0.4 0.6 1.5 0.5 3.4-0.5 0.4-0.6-1.6-0.3-1.7-1-2.4-0.3-1.9 0.5-0.7 2.2 2 0 0.5z m-4.8-5.1l-0.7 0.8-0.7-0.1-0.1-1.6-1.3-0.5-0.7-0.6-0.2-1 0-1.5 0.3-1.4 1-0.2 1.3 1.4 1.4 2.5-0.3 2.2z m38-24.8l-1.4-0.5-0.6-1.1 0.2-0.8 1.3-0.8 0.8-0.1 0.8 0.9 0 1.2-1.1 1.2z m-15.9-12.5l0.8 1.2-0.2 0.5-1.9-0.7-0.7 1.4-0.5 1.9-1.1 0.2-1.2-1.3-0.1-1.8 0.7-1.4 1-0.7 1.8-0.2 1.4 0.9z m-6.6 2.5l-1.4 2.9-0.5-0.5 0.2-0.9 0.2-1.5 0.6-0.7-0.1-0.8-0.5-1 0.1-1.5 1 1.8 0.4 2.2z m20.6-3l0.4 0.3 0.7-0.7 1.4 0 0.5 0.7-0.7 1-0.2 1.6-0.6 2.1-0.3 1.3-0.6 1.8-0.9-0.4-1-1-0.4 0.7 0.3 1.5-0.4 1.3-1.1 0.2-0.7 0.9-1.5 0.5-1.9-1.3-1.5-2-1-3.1-0.8-1.5-0.1-1 1.9-1.3 0.8-0.7 0.7-1.2 1.7-1.4 2.4-1.2 1.6 0.2 1.3 2.7z m17.8-2.1l0.8 1 0.9 0.3 1.1-0.3 1.3-0.8 14.7 13 4.4 0.8 2.2-1.8 2.1-2.7 2.6-2.4 3.7-0.9 3.2 1 2.9 1.6 1.9 0.3 2.4-5.1 2.5 0.3 8 5.4 11.3 10.7 1.7 4.2-1.4 1-9.6 2.2-6.1 3.6-2.6-1.1-0.9-2.6-0.8-3.1-1.4 0.7-0.7 0.5-0.1 0.9 1.1 3.7-0.2 0.6-2 1.4-0.3 0.6 0.5 2.7-0.4 0.4-1.6 1 1.7 0.8 2.8 0.8 4.8 0.1 2 1.4 0.1 1.5 0.9 5.8 1.9 1.9 1.7 0.8 2 2.3 1.2 4.1 2.1 18 1 3.5 2.2 4.2-0.1 0.7-0.9 0.4-4.3-3.2-3.6-3.6-1.8-2.6-2.7-5.7-1.3-2.1-4-2.7-5-1.7-5.1-0.6-4 0.3-4.8 2.8-3.3 4.5-5.8 12.2-3.8 5.1-3.5 1.4-9.7-2.1-2.2 0.2-1.2 2.4 0.1 3-1.8 0.9-2.5-1.3-5.7-1.8-9.1-0.7-2.8 0.4 1.4 2.3-8 4.9-0.9 1 1.9 3.7-1.1 0.8-4.8 1.8-2.9 2.7-0.9 2.1 0.2 2.7 2 0.9 0.5 0.1 0.1 1.6-1.3 2-0.9 1.9 0.9 0.2 1.1-0.2 0.1 0.9-1.1 4.7-0.3 0.8 1.7-0.5 5.8-0.5 1.2 3.4-0.1 5.5-0.2 1.5-1.1 0.8-1.3 0.7-0.7 1.6 0.6 1.1-0.1 2.2-1.2 4.8-1.4 1.1-2-0.6-1 0.1-3.1 1.5-1 1.9 0.4 1 1 1.1-2 0.6-1.7 1.6-1.5 2.4-6.3 14.4-0.6 3.4-0.1 1.8-1.6 5.8 0.1 5.1-0.9 3.6-1.7 1.5-7.9 11.4-3.8 3.8-3 2-3.2 0.5-17.2-4.1-6.9-3.3-3.8-2.9-7.5-8.6-2.1 1-0.7 2.1-1.3 2.9-1.1 3.6-0.6 6.8 0.1 2.9 1 4.9 0.7 1.9 2 3.1 1 1.3-0.9 4-6.8 8.4-5 4.8-4.6 3.2 0.2 3.1 0.3 3.7 0.4 1.2 1.4 0.1-0.3 3.1-0.6 3.1-1.8 6.2-2.9 8.2-0.6 3.7 0.3 1.6 0.1 3.5-0.6 3.1-0.6 1.2-0.6 2 0.4 0.9 1.6 0.4 0.4 0.4-0.1 2.9 7.1-2 3.3 1.1 1.2 1.6 0.3 2.6-1.9 0.7 0.2 1.9 0.6 1.7 0.6 3.1 0 3.9-0.2 2.3 1.3 2.4 1.5 0.3 2.4 1.1 1.8 2.2 0.8 1.6-0.4 2.2-3.9 1.1-2.6 1.4-1.4 2.2 0.3 2.7 1.1 1.9 0.9 2.4-0.2 2.4-4.2 0.9-1.1 6.3-0.4 11.4-0.3 2.7 0.3 0.4 1 3-10.7-0.9-4.9 0.5-4.5 2.5-2 2.7-1.7 3.3-1.9 3.1-2.5 1.8-1.9 2.8-0.4-0.2-2-1.7-1.1-0.5 1.5-3.9-1.3-1.6-4-1 3.6-12.7 0.8-4.8 0.4-9.1 0.7-1.7 1.4 4.1 1.6-5.6 0.3-2.9-0.6-2.1 1.3-2.4 2.8-2.1 1.2-1.5 0.5-2.7-0.8-1.9-2.5-2.8 1.9-6.8-2 0.2-1.1 2.1-1 2.7-1.6 1.8 0.4-3.2 1.1-5.6 0.4-3.3 0.1-9.2 0.5-2.9-4.9 2-1.4-0.8-0.7-1.9-0.2-2.5 0.4-2.6 1.2-2.2-0.7-2.9-5.9 10.1-0.3 2 1.3 2.8-2-0.4-0.4-3 0.4-4 0.7-3.4-1.9-1.2 0.7-2.4 0.5-0.9 0.7-0.9-1.5-1.2-1.7 0.5-1.8 1.4-1.3 2-0.2-2.5 1.7-6 0.4-3.5-1.6 1.3-1.1 0.7-0.7-1.1-0.3-3.6 0.2-3.4 0.8-2.8 1.2-2.1 1.5-1.4-0.5-1.6-2-3.7 1.8-1.7 1.9-2.5 1.9-1.8 1.9 0.5-1.4-3.7-6.6-1.7-1.4-2.7-1.1 0.7-1 1.3-1.6 3.4 0.2-4.8 1.4-7.8-0.3-3.8 1.8-0.5 2.4-1.8 2.2-2.7 1-3.1 0-2.2-0.5-0.3-0.6 0.3-0.7-0.5-1.6-2.2-0.6-1.2-0.8-3.4 0.5-2.8 1.4-2 2-0.7 1.9 2 1.1 0.4 0.5-1.6 1.9-3.4 0.6-1.5 0.5-3.2 0.1-2.9 0.3-2.6 1.5-2.2 2.2 0.1 6.3 2.7 1.9-0.8 0.7-1.2 1.7-1.8 0.7-1.1 0.4-1.4 0.4-2.7 0.9-2.6 1-4.3 0.1-1.3 0.5-0.5 3.3-1.5-1.5-7.1-0.4-3.6 0-4.5-0.2-2.1 0.3-0.6 1.2-1.4 0.9-0.1 0.8 1 0.5 0 0.1-3 1.2-2.7 2.6 1.5 3.8 4.7 2.7 1.2 2.8 2.2 2.8 1.2 2.9-1.9-3.9-5.6-6-5.8-1.8-2.3-0.6-2.7 1.7-3-1.1 0.8-1.3 0.3-1.2-0.3-1.1-1.4-0.3-2.2 0.1-2.1-0.2-1.5-1.1-0.4 0.6-2.2 1.1-0.8 2.7 0.2 0-1.4-3.6-1.4-1.1-1.5-0.4-3.3 0.8-1.8 1.7-1.6 1.9-1.1 1.2-0.3 5.3 5.8 2.9 1.2 1.9-4.4 1.8 1.9 2.4 1.6 2.5 0.5 2-1.2-1.4-1-2.8-0.9-1.4-0.9 0-1.2 3.8-2.8 1.3-0.4 3.6 0.4 2.1-0.9 4.5-3.2 2.2-0.2-0.9 3.1-0.2 1.9 0.8 8-0.1 1.7-0.8 2 2.2 0.5 7.2 6.5-1.1-4.4-1.5-3.9 2.6-1.4 0.9-1 0.9-1.9 0.5-2 0.6-3.3 0.8-1.5 1.7-1.3 0.9 1 0.7 1.8 1 1.3 1.4 0 2.4-2.2 1.2-0.6 1.1 0.3 1.8 1.2 1.5-0.1 0.5-0.6 0.1-2.3 0.5 0.1 1.3 1 0.1 0.4 3.8-5.6 2-3.7 1.1-3.3 0.6 0 2.1 5.2 2-1.6 2-4.4 2-3.2-0.9-1.1-0.6-1.5-0.9-3.1-1.2-2.1-2.6-2.7-4.6-6.8-0.4-1-1.6-0.1-1.4-0.5-1.1-1.3-0.9-2.2-0.5-5.5 2.1-2.6 3 0.3 2.6 2.8 2.7 4.1 2.8 1.1 2.9 0.4 3.1 2.1-7.6-8.6-3.4-5.6-0.8-5.3 0.9-2.6 1-0.7 2.4 0.5 1.7 0.8 0 2-0.6 2.3 0.2 1.9 2 1.1 2.3 0.5 1.5 1.7-0.2 5 1.2-0.9 1.5-2.3 1.1-1 0-1.3-0.7-1.9 0.3-1.8 0.6-1.8 0.4-2.3 0.2-0.1 1.6-7.5 0.9-1.5 1-1 0.9-1.3 0.4-2.6 0.5-0.2 3.9 2.4-0.7-2.6-3.7-7.2 1.5-2.7 0.7-0.9 0.9-0.7-0.6-2.8 3.9 0.9 1.6-0.8 0.7-3.6-0.2-4-0.2-1.9 0.5-0.2 1.7 1 1.4 2.5 0.8 0.9 0.4-1.1 0.3-2.1 0.9-1.1 1-0.2 0.9 0.5 1.4 1.8 1.1 2.1 0.4 2.5-0.4 2.8 1 1.6 1.9 4.6 0.5 0.9 1.4-0.2 1.6-0.7 1.6-1.2 1.1-1.5 0.7-0.7 0.9 0 0.8-0.5 0.4-1.6 0-2.7 0.6-2.1 1.4-2 2.9-1.6 1.4-2.2-1.6-1.4-4.7-2.8 6.3 0-1.8-3.3-0.7-0.9 2.3 1.3 1.3 0.2 1-0.9 0.3-1.1 0.1-1.6-0.1-1.6-0.3-0.6-1.6-1-0.8-2.3 0.3-2.4 1.8-1.4 1.9 0.3 1.1 1.5 1.7 4.6 1.5 2 1-0.5 0.1-2.1-1-2.9z m-32.3-3.2l-1.6 0.5-0.6-0.1 0 2.1-0.5 0.5-0.6-1.5-0.9-3 0.8-0.6 0.3-0.6 1.9 1.4 0.6 0 0.6 0.6 0 0.7z m1.7-1.8l-0.5 0.5-0.7-0.1-0.3-0.9 0.1-1.2-0.1-2.2 0.5-0.4 0.8 0.9 0.4 1.8-0.2 1.6z m11.2-9.8l-0.5 0.2-1.4-0.9-0.2-0.8 0-1.5 0.8-0.4 1 0.4 0.3 1 0 2z m3.9-11.1l-1.4 0.3-0.9-0.7 0.4-1.3 1.2-0.3 0.5 1 0.2 1z m-3.7-0.5l-0.3 0.6-2.6-1.2-0.1-0.7 1.3-0.7 1.3 0.1 0.3 0.6 0.1 1.3z" id="FIN3182" name="Ostrobothnia">
 </path>
 <path d="M281.5 1556.4l1.8 4.8 2.1 4.4 2.5 3.8 2.7 3.1 3.1 2.5 3.4 1.5 15.7 3.8 6.2 5.1 8.3 9.4 2.1 3.4-2 1.6-1.2 1.3-1.1 1.8 3.8-0.2 13 6.7-1.5 4.7-1.8 3.8-2.3 2.4-3.2 0.9 1.1 5.2 0.8 0.5 0.9-0.5 0.3 1.6 0.1 4.2 0.4 2.2 0.7 2.8 1.1 2 1.3 1.1 0.7 2.8 0 3.5 1.6 3.2 1.9 0.2 3.2 1.2 2.1 3.1 0.7 2.5-0.9 3-5.6 0.8-1.3 0.5 0 3.6 5.6 9.6 7.1 16.5 2.9 5 1.9 2.3 1.2 3.1-4.6 5-0.8 1.4 0.3 1.9 2.9 0.1 2.5-0.4 0.8 0.6-0.1 1.1-0.3 0.6-2.1-0.2 0 0.7 0.3 1.3 0.6 2.9-0.1 0.8-2 0.5-0.4 0.4-0.1 1.7 0.5 1.6-1.3-0.3-0.1 1.1 0.3 1.5-0.3 0.7-0.1 2-0.3 2.7-1.1 1.2 0.3 2.1-1 1.1-1.3 0.1-1 0.4-2.1 1.5-1.8 1.9-1.1-0.3-0.4-1.2-0.8-1.4-2.1-0.6-1.3-0.7-4 1.7 0 2.1 0.6 2.3-0.8 2-2 0.4-7.6-2.7-2.1 0.3-2.6 2-3.4 3.5-7.5 9.9-2.7 5.2-6.5-5.2-2.4-3.2-1.7-6.4 0.1-1.9 0.4-2 0.1-2-1-2.1-1.4-0.5-1.2 1.2-1.4 1.9-0.7 0.9-0.8-0.1 0.3-4.7-0.8-0.3-1.5 1.3-0.1 1.2 0.1 1.1-1.4 1.4-1.6 0.6-2.7 1.8-5.2 4.7-3.6 1.9-11.8 0.8-2.1 0.8 0.5 3.1 0.3 3.6-0.9 0.3-1-0.7-6.6-0.6-1.8-1.4-2.9-4.6-1.1-1.3-3.8-0.5-2.5 2.5-4 8.9-7.1 8.5-9.7 5.6-10.5 3-9.7 0.7-12.2-2.6-7.8-3.9-3 0.4-1.3 6.2-1.2 3.8-1.2 2.9-3.5 4.9-9.6 10-1.6 2.6-4.2 4.4-9.9 4.3-4.8 3.7-10.4 14.1-4.1 3.4-7.8 1.5-26.1-6.8-1-3-0.3-0.4 0.3-2.7 0.4-11.4 1.1-6.3 4.2-0.9 0.2-2.4-0.9-2.4-1.1-1.9-0.3-2.7 1.4-2.2 2.6-1.4 3.9-1.1 0.4-2.2-0.8-1.6-1.8-2.2-2.4-1.1-1.5-0.3-1.3-2.4 0.2-2.3 0-3.9-0.6-3.1-0.6-1.7-0.2-1.9 1.9-0.7-0.3-2.6-1.2-1.6-3.3-1.1-7.1 2 0.1-2.9-0.4-0.4-1.6-0.4-0.4-0.9 0.6-2 0.6-1.2 0.6-3.1-0.1-3.5-0.3-1.6 0.6-3.7 2.9-8.2 1.8-6.2 0.6-3.1 0.3-3.1-1.4-0.1-0.4-1.2-0.3-3.7-0.2-3.1 4.6-3.2 5-4.8 6.8-8.4 0.9-4-1-1.3-2-3.1-0.7-1.9-1-4.9-0.1-2.9 0.6-6.8 1.1-3.6 1.3-2.9 0.7-2.1 2.1-1 7.5 8.6 3.8 2.9 6.9 3.3 17.2 4.1 3.2-0.5 3-2 3.8-3.8 7.9-11.4 1.7-1.5 0.9-3.6-0.1-5.1 1.6-5.8 0.1-1.8 0.6-3.4 6.3-14.4 1.5-2.4 1.7-1.6 2-0.6-1-1.1-0.4-1 1-1.9 3.1-1.5 1-0.1 2 0.6 1.4-1.1 1.2-4.8 0.1-2.2-0.6-1.1 0.7-1.6 1.3-0.7 1.1-0.8 0.2-1.5 0.1-5.5-1.2-3.4-5.8 0.5-1.7 0.5 0.3-0.8 1.1-4.7-0.1-0.9-1.1 0.2-0.9-0.2 0.9-1.9 1.3-2-0.1-1.6-0.5-0.1-2-0.9-0.2-2.7 0.9-2.1 2.9-2.7 4.8-1.8 1.1-0.8-1.9-3.7 0.9-1 8-4.9-1.4-2.3 2.8-0.4 9.1 0.7 5.7 1.8 2.5 1.3 1.8-0.9-0.1-3 1.2-2.4 2.2-0.2 9.7 2.1 3.5-1.4 3.8-5.1 5.8-12.2 3.3-4.5 4.8-2.8 4-0.3 5.1 0.6 5 1.7 4 2.7 1.3 2.1 2.7 5.7 1.8 2.6 3.6 3.6 4.3 3.2z" id="FIN3183" name="Southern Ostrobothnia">
 </path>
 <path d="M520.3 1906.6l0.2 2-0.1 3.1 0 0.9-0.3 0.6-3.2-0.7-0.1 0.8 0.4 1.2 0.4 2 0.3 4.4-0.2 1.5-1.2 0.7-1 1.5-0.6 2.2 1.9 3.4 0.3 1.1-0.5 1.8-1.6 4.5-0.4 1.2 0.8 2.7 1.7 2.1 2.8 2.1 0.4 1.1-1.3 2.2-1 2.8 0.9 1.1 1.3 0.6 4.9 5.2 2.9 2 6.9 2.4 1.8 2.2 1.5 5-4.6 1.4-2 1.3-0.9 1.1-1.4 6.5-2 3.7-8.7 8.4-9.3 4.2-2.9-0.5-3.3-3-4.1 2.6-2.3 3.2-0.7 2.5 0.5 3.3 0.9 0.4 1.4 1.1 1.2 1.3 1.1 1.6 0.6 1.7 0.3 2.1 0.6 1.9 0.6 0.9 0.5 1.3-1.7 5.9-0.6 1.5-1.5 0.7-3.5-0.7-1 0.3-0.3 5.4 3.1 3 6.3 1.7 1.2 1.9-0.7 1.5-1.5 2.5-1 2.5-0.1 1.7-0.3 1.6-0.7 0.1-1.4 0.9-1 1.8-0.2 2.7 0.9 1.4 5.7 0.9 2.3 1.9 1.5 3 1 3.8 0.7 4.5 0.2 1.4 0.3 2.2 0.3 0.5-0.9 3.3-1.8 2.2-2 1.2-4.3 0.5-8.4-2.1-5.3 0.1-2.5-0.6-1.4-1.2-0.8-1.5-1.2-1.4-2.1-0.6-25.3 8.5-3.5-0.2-4.4-2.8-0.2-5.1-1.1-4.9-1.5-4.1-1.8-2.3-2.9-0.1-6.1 5.4-4.1 1.2-2.3-0.9-2.3-2.2-4.8-6-1-1.9-0.8-2-1.2-0.6-7.7 1.9-1.4-0.2-0.7-1.4-0.2-1.7 0.4-1.9 0.8-1.4 4.1-10 2.1-4 2.3-3.5 2.7-2.8 1.6-1 1.5-1.4 0.1-1.1-0.5-1.4-2.1-2.4-1.3-0.9-0.3-0.6 1.2-0.5 1.3-0.1 1.4-2.8 3.2-8.9 0.1-5.2-2.1-2-2.2-1.3 0-1.4-0.2-2 0.4-1.8 0.6-1 0.6-1.8 0.4-3.4-0.8-2.1-2.6-2.5-1.3-2.5-0.3-1.9-1.6-2.2-10.2-2.5-4-0.1-1.1-1.7-0.3-2.2-1.2-1.4-1.2 0.5-1.9-0.5-1.9-1-1.2-0.2-1.3-0.7-0.4-3.6 0.1-2.2-1.6-3.3-0.1-4.1 0.3-4.5 0.1-4.4-0.8-2.5-1.4-2.8-1.3-3.5-0.5-2.1 0.9-1.7 8 3.5 0.8 0.9 39.8-6.3 2.1-1.2 1.6-2.5 1.6-4.5 1.4-7.1 2.4-17.2 1.2-4.6 1.3-0.7 4.7 1.2 1.4-0.8 3.3-3.2 2.8-1.5 2.4-0.4 4.5 0.3 1.6 0.4-0.8 1.7 1.4 0.1 1.4-1.6 3.4-6.5 2.6-7.5 0.5-2.4 1-2.3 0.8 0.6 0.7 1.6-0.2 2.1-0.5 1.3 0.4 1.7 0.9 0.3 1.5-0.4 1-1.8 0.3-1.6 0.9-1 3.6 3.3 1.2 1.7 0.8 1.8 1.2 4.1 0.9 1.3 1.9 0.4 2-1.8 1.2 1.6 0.4 1.1 0.7 0.8 0.4 0.9-0.2 0.9-0.7 2.6-0.4 1.8-0.9 2.2 0.9 1.8 0.9 0.9 3.8 1.7 2.4 3.2 0.9-0.1 0.8-0.9 8-3.5 3.4-0.5 1.3 0.5 0.8 2.2-0.4 1.1-0.1 1.6 0.4 1.4 0.7 1.8z" id="FIN3184" name="Päijät-Häme">
 </path>
 <path d="M410 2055.7l0.6 2.8 1.1 1.7 2 2 0.7 1.5-0.1 1-1.6 1-1.5 0.5-2.4 1.4-1.9 2.4-0.9 1.8-0.5 2.4 0.3 0.8 3.3-2.7 2.2-0.6 4.5 1.3 0.9 0.7-7.2 3.5-1 1.2 1.1 5 0.3 0.9-1.1 0.6-6.2-2.8-3-0.3-2.9 0.6-4.8 2.2-14.6 2-12.6-1.1-1.9 1-1.5 3.4-0.6 3.5 0.1 5.3-0.3 2.1-3.8 3.6-5.6 1.1-4.5-2-0.8-2.6-0.7-3.5-1.4-0.5-3.8-0.5-2.8 1.4-0.5 2.3 0 2.5-1.8 0.5-2.9-5.9-1.6-1.9-3.9-2.3-22.3-6.1-4.6 0.8-12-0.7-5.6-1.7-4.7-5.2-7.4-1.6-4-2.8-1.4-2.5-3.2-3.8-2.4 0.3-8.6 3.4-4.4 0.7-3.7-0.9-3.2-2.2-5.1-4.5-1.3-3 0.6-1.5 1.4-2.7 1.7-2.1 1.2-1.1-0.4-1.8-4.2-1-2.2-2.2-0.3-4.6 1.8-3.6 3.1-1 5.4 0.7 1.5-0.3-1-4 1.7-0.2 1.2-1.2 0.6-2.7 0.1-1.9-1.5-2.2-1.4-0.6-2.2-2-3.9-5.2 7.1-3.6 6 2.3 8.7 7 3 1-1-3.4 1.4-0.7 10.2 0 7.1-3.5 4-0.5 1.4 0.9 5.1 1.8 5.2 8 1.5 0.7 1.3-2.4-0.4-1.5-1-2.4-1.3-1.9-0.8-0.8-0.3-1 2.5-1.7 1.7-1.6 0.7-1.9-1.2-1.4-1.1-0.1-4.5 1.6-0.7-0.3 0.7-3.7-0.4-0.8-3-0.9 1.1-2.1 1.8-1.3 12.2-3.4 9.2-5.3 5-1.4 4.8 0.6-0.5-2.5 4.7-1.6 3.8-2.1 4.9-4.9 1.1-2.1-0.6-0.3-1.2-1.4-0.8-2.1 0.2-3.1 1.1-1 5.8-0.2 3.3-1.1 12.6-8.9 3-1 3.1 0.3 6.4 3 3 0.8 2.4-1.7 0.9-2.8 1.1-2.3 0.6 1.2 2 5.1 1.3 1.6 2.3 0.2 7-3.1 0.9-1.6 0-1.2 0.3-1.8 0.9-1.5 1.3-1.2-0.1 2.2 0.4 3.6 1.3 0.7 1.2 0.2 1.9 1 1.9 0.5 1.2-0.5 1.2 1.4 0.3 2.2 1.1 1.7 4 0.1 10.2 2.5 1.6 2.2 0.3 1.9 1.3 2.5 2.6 2.5 0.8 2.1-0.4 3.4-0.6 1.8-0.6 1-0.4 1.8 0.2 2 0 1.4 2.2 1.3 2.1 2-0.1 5.2-3.2 8.9-1.4 2.8-1.3 0.1-1.2 0.5 0.3 0.6 1.3 0.9 2.1 2.4 0.5 1.4-0.1 1.1-1.5 1.4-1.6 1-2.7 2.8-2.3 3.5-2.1 4-4.1 10-0.8 1.4-0.4 1.9 0.2 1.7 0.7 1.4 1.4 0.2z" id="FIN3185" name="Tavastia Proper">
 </path>
 <path d="M310.7 1759.7l0.3 6.6 1.1 4.2 1.7 2.6 2.1 2 3.8 2.6 4.1 1.8 7.5 1.7 3.2 5.1 1.1 4.2 3.6 6.3 2.9 1.7 1.1 1.4 3.6 0.8 2.5-0.9-1.1-2.9 1.6-1.2 4.6-2.4 2.8 0 3.2 2.3 2.2 3.5 1.8 3.9 2.2 3.2 1.7 1.1 1.6 2.3-0.2 2-0.1 3.4 0.2 4.5 1.5 1.7 5.3 3.1 2.8-0.1 8.7-4.2 1.7 3.3 0.7 3.5 3.8 13.5 0.9 6.5-0.6 9.4-0.9 7.7 0.7 5.4 1.9 1.9 2 0.8-1.4 1.2 0.5 1.8 2.1 4.8 0.2 3-1 1.3-1.6-0.7-0.7-0.9-1.3-0.4-1.3 1.5-0.8 3.4 0.5 2.6 1.3 2.6 2.1 3 0.2 1.9-0.8 1.8-0.1 1.9-2 0.9-6-3-3.7-0.9-2.9 3.1-0.7 4.3 1.2 3.3 1.7 3.5 0.7 2.2 2-0.9 2.2-2.1 2.8 0.6 0.5 3.6-1.4 2.2 0.3 1 2 1.1 1.3 4.2 0.6 5.8 1.4 5.9-8-3.5-0.9 1.7 0.5 2.1 1.3 3.5 1.4 2.8 0.8 2.5-0.1 4.4-0.3 4.5 0.1 4.1 1.6 3.3-1.3 1.2-0.9 1.5-0.3 1.8 0 1.2-0.9 1.6-7 3.1-2.3-0.2-1.3-1.6-2-5.1-0.6-1.2-1.1 2.3-0.9 2.8-2.4 1.7-3-0.8-6.4-3-3.1-0.3-3 1-12.6 8.9-3.3 1.1-5.8 0.2-1.1 1-0.2 3.1 0.8 2.1 1.2 1.4 0.6 0.3-1.1 2.1-4.9 4.9-3.8 2.1-4.7 1.6 0.5 2.5-4.8-0.6-5 1.4-9.2 5.3-12.2 3.4-1.8 1.3-1.1 2.1 3 0.9 0.4 0.8-0.7 3.7 0.7 0.3 4.5-1.6 1.1 0.1 1.2 1.4-0.7 1.9-1.7 1.6-2.5 1.7 0.3 1 0.8 0.8 1.3 1.9 1 2.4 0.4 1.5-1.3 2.4-1.5-0.7-5.2-8-5.1-1.8-1.4-0.9-4 0.5-7.1 3.5-10.2 0-1.4 0.7 1 3.4-3-1-8.7-7-6-2.3-7.1 3.6-2.5-1.6-1.9-2.4-2.4-2-3.9-0.5-4.3 1-2.3-0.1-1.1-0.5-2.4-2.5-0.2-2.2 0.7-1.5 1.4-0.8 0.9-0.3 0.1-1.5-1-0.6-4.5 0.8-1.1-0.2-0.5-1.8 0.6-1 1.4-1.6 2.2-2.1-0.5-1.2-1.1-0.8-1.7-2.2-1-3.3-0.3-2.3 0.2-2.2 2.6 0-0.6-3.7-1.7-2.7-5.2-3.8-11.1-2.4-5.9 0.3-1.8-0.6-1-1.4-0.4-1.5-0.3-1.7-0.6-1.5-5-7.6-0.8-1.4-0.2-1.7 1.9-1.3-0.1-1.2-0.4-1.2-1.8-6.7 0.6-1.4 2.6 0.5 2.4 1.1 1.2-0.7 0.9-2 1.5-0.8 0.7-0.8-0.5-2.4 0.6-0.7 4.6-1.1 0.3-1-0.4-0.9-0.4-1.9 0.1-2.3 0.3-1.4-2.2-1.6-2.5-1-3-2.9-3.7-6.3 0.2-3.8 5.6-5.8 2.1-4.8-0.5-3.2 0.4-1.2 1.8-0.2 1.5-3-0.4-3.9-1.2-1.4-1.8 1.7-0.6 1.6-1 0.6-0.8-2-0.3-1.9 0.1-1.8 0.5-0.7 1.5-3.6 1.5-4.7 1.9-2.8 2-1.7 3.3-2.1 3-3 1.5-3.2 0.1-4.8-3-3.6-2-1.6-2.3-0.8 0-1.1 0.6-0.8 3.2-0.8-0.1-1.6-2.7-1.6-1.1-1.9-0.3-1.8-1.4-2.4-1.4-0.4-2.5-1.2-1.7-2.7-0.4-2.5-1.6-3.3-8.2-4.6-0.1-2.3 4-4.8 3-2.5 3.5-1.7 5.9-0.2 2-1.2 2-2.1 0.3-0.9-0.3-1.3 0.1-3.5-0.1-2.5-0.5-2.5-0.3-2.7 0.5-2.9 1.6-1.6 3.6 0 2.1-0.5 0.5-2.2-1.4-13.7-0.1-5.4 9.7-0.7 10.5-3 9.7-5.6 7.1-8.5 4-8.9 2.5-2.5 3.8 0.5 1.1 1.3 2.9 4.6 1.8 1.4 6.6 0.6 1 0.7 0.9-0.3-0.3-3.6-0.5-3.1 2.1-0.8 11.8-0.8 3.6-1.9 5.2-4.7 2.7-1.8 1.6-0.6 1.4-1.4-0.1-1.1 0.1-1.2 1.5-1.3 0.8 0.3-0.3 4.7 0.8 0.1 0.7-0.9 1.4-1.9 1.2-1.2 1.4 0.5 1 2.1-0.1 2-0.4 2-0.1 1.9 1.7 6.4 2.4 3.2 6.5 5.2z" id="FIN3186" name="Pirkanmaa">
 </path>
 <path d="M611.4 2154.7l-0.7 1.7-1.2-1.1 0.3-0.8 1.1-0.2 0.5 0.4z m-48.9-11.1l-0.7 0.4-1-1.1-1.8-2.6 1.6-1.4 2.1 1.8 0.3 1.4-0.1 1.2-0.4 0.3z m26.2-5.9l-0.5 0.5-1-0.2-1.1-0.6-1.3-2.9-0.6-2 0.7-1.1 3.3 1.5 0.9 0.6-0.4 4.2z m-47.5 0l-0.9 0.1-1.1-1.3-1.7-3.4 0.5-1.4 4.4-1.1 1.2-0.9 0.6-1-0.1-1.4 0.4-1.1 0.8-0.9 0.8-0.1 3.8 2.7 0.8 0.9-0.3 1-1.2 1.2-5.7 1.8-1.3 1.4-1 3.5z m60.6-146.3l0.2 3.3-0.7 2.2-1.8 3.7 0.2 1.5 0.7-0.1 1.3 0.3 0.5 0.3 1.1 1.1-1 1.2-1.4 0.8-3.2 2.5-1.7 3.7 0.4 2.7 0.7 2.3-1.5 2.5 0.4 0.9 0.7 0.4 3 0.7 1.3 0.6 1.1 1.5 0.6 1.6 0.8 1.5 1 0.6-0.3 1.9-1.4 0.9-2.9 0.6-2.8-0.8-1.4-0.8-1.3-0.3-0.1 1.1 1.1 2.1 6.3 7.1 3.1 2.1 11.5 4.7 2.9 2.8 4.4 6.5 2.6 3 2.8 1.8 16.1-0.2 2.7 3.9 1.2 2.3 3.4 0.9 4.1-0.5 3.6 1.4 0.9 1.8 1.5 5.1 0.8 1.9 1.5 1.6 4.6 3.4 0.7 1.1-0.8 1.1 0.3 0.3 2.1 0.4 0.8 0 1.4 0.4-2.1 2.7-8 8.4-7.8 9.5-1.5-1.7-1.2-2.1-1.4-1.2-2.1 1.1 1.3 2.7-1.6 0.8-0.2 2.1 0.6 2.5 1.2 2.1-1.9 1.3 1.2 1.1 0.7 0.1-3.2 3.2-1.2 0.6-6.3-1.3 0.9-2.1 2.8-1.4 1.3-1.5-3.6-0.6-1.8 0.1-1.5 1.8-0.7 2.3 0.3 1.4 0.8 1.5 0.9 2.4-3.4-1.2-7.7-6.7-3.2 1.5 0.9 0.3 0.3 0.4 0.7 1.8-0.6 0.5-1.3 2.1 1.8 1.5 0.7 1 0.6 1.3-4.6-1.1-7.9-6.3-4.1-1.5-6.9-0.4-1.5-0.8-0.2-2.6 2.4-0.6 4.7 0.7-2.1-2-6.7-4.3 1.4-3.7-1.1-1-2.1 1-1.3 2.3 0.5 2.8 1.3 2.8 0.3 2.5-2.1 2.1-0.2-2.4-0.5-0.6-1.8 0.5-1.2-0.6-1.2-2.7-1-0.6-0.7 0.6-0.9 2.6-0.7 0.7-0.8-0.5-1.5-2.7-0.8-0.7-0.8 0.2-1.1 0.7-0.8 1.1 0 1.2 0.3 1.8-0.6 1-0.8 0.9-1.3 4-1.9 0.8-4.2-0.3 2.2 2.9 0.9 2-0.2 2.1-0.8-0.4-2.7-3.2-0.9-1.4-8.3 3.1-2.7 0 0.6-1.1 0.5-1.3 0.8-2.7-1.6-0.1-1.9 0.5-1.8 1.2-1.3 1.6-0.3 1.3 0.2 3.2-0.2 1.2-0.7 0.8-1.9 1.3-0.8 1.1-1.3 0.3-1.7-1.9-1.6-2.5-1.4-1.6-1.7-0.4-2.1 0.1-1.6 0.9-0.2 1.9-1.9 0.7-2.4-1.2-2.3-2.5-1.8-2.7-0.7-3.6 1.5-2 2.4-1.4 1.7-1.8 2.5-5.2 0.4-1.2-0.3-4.2 0.2-1.6 1.2-1.9 4.1-3.4 3.8 0.6 7.9 6-2-7.2-2.9-5.1-3.7-2.1-4 1.6-2.1 2.7-3.5 6.8-1-0.7-3.8-0.7-2.4-2.9-2.2-3.6-3.1-3.1-6.2-3.7-1.8-3.1 0-2.6-0.1-2.9-0.7-1-1.7-4-1.2-1.5-1.6-0.5-3.2 0.5-1.8-0.6-0.7-4.5-1-3.8-1.5-3-2.3-1.9-5.7-0.9-0.9-1.4 0.2-2.7 1-1.8 1.4-0.9 0.7-0.1 0.3-1.6 0.1-1.7 1-2.5 1.5-2.5 0.7-1.5-1.2-1.9-6.3-1.7-3.1-3 0.3-5.4 1-0.3 3.5 0.7 1.5-0.7 0.6-1.5 1.7-5.9-0.5-1.3-0.6-0.9-0.6-1.9-0.3-2.1-0.6-1.7-1.1-1.6-1.2-1.3-1.4-1.1-0.9-0.4-0.5-3.3 0.7-2.5 2.3-3.2 4.1-2.6 3.3 3 2.9 0.5 9.3-4.2 8.7-8.4 2-3.7 1.4-6.5 0.9-1.1 2-1.3 4.6-1.4 8.8-2.6 2.1 0.9 0.9 1.6 0.8 2.1 0.7 1.1 0.4 1.7-1.9 4.3-0.4 0.8 0.8 1.8 1.4 0.4 3.1-0.9 3.1-2.2 2.6-2.5 0.9-1.4 1.3-3.7 1.1-1.4 1.7-1.1 2-0.6 3.1-0.2 1.1 2.3 0.3 2.1 0.9 2.1 1.1 1.7 0.8 2.6 0.7 6.8 0.3 1.1 1.3 2.6 5.3 3.7 19.3-2z" id="FIN3187" name="Kymenlaakso">
 </path>
 <path d="M869.2 1859.8l-15.3 23.6-12.4 13.1-1.8 3-2.2 6.7-1.7 3.2-13.2 15.7-2.8 2.2-5.9 2.7-2 1.9-1.7 3.1-1.6 4.6-1.6 4-13.2 14.4-2.7 4.2-2.5 4.9-5.3 8.4-6.7 6.2-13.6 8.6-5 3.8-6.4 6.6-5.3 3-1.5 1.9-2.8 4.8-5.6 6.4-1.7 2.8-1.5 3.9-3.6 5.6-8 2.2-4.2 3.2-13.2 13.8-8.4 12.7-8.7 6.3-13.2 17.5-1.4-0.4-0.8 0-2.1-0.4-0.3-0.3 0.8-1.1-0.7-1.1-4.6-3.4-1.5-1.6-0.8-1.9-1.5-5.1-0.9-1.8-3.6-1.4-4.1 0.5-3.4-0.9-1.2-2.3-2.7-3.9-16.1 0.2-2.8-1.8-2.6-3-4.4-6.5-2.9-2.8-11.5-4.7-3.1-2.1-6.3-7.1-1.1-2.1 0.1-1.1 1.3 0.3 1.4 0.8 2.8 0.8 2.9-0.6 1.4-0.9 0.3-1.9-1-0.6-0.8-1.5-0.6-1.6-1.1-1.5-1.3-0.6-3-0.7-0.7-0.4-0.4-0.9 1.5-2.5-0.7-2.3-0.4-2.7 1.7-3.7 3.2-2.5 1.4-0.8 1-1.2-1.1-1.1-0.5-0.3-1.3-0.3-0.7 0.1-0.2-1.5 1.8-3.7 0.7-2.2-0.2-3.3 10.7-1.2 1.7-0.6 1.6-1.9 0.1-2.1 0.6-0.8 0.8-0.5 0.6-0.8-0.3-1.7-2.3 0-2.3-1-1-2.1 0.8-1.4-0.2-3.1-4.9-6.8-3.3-3.1-1.4-2.1 1.6-0.5 1.1-1.1-1.4-1-8.8 0.3-15.3-3-0.7-3 1.5-1.8 3.1-1.1 6.6 0.7 2-0.3 8.1-5.1 4.4-0.8 4.8 0.6 21.6 7.7 58.5-2.5 14.6-8.6 5-5.4 1.2-2.1 1-3.4 0.4-1.1 2-3.1 2-2.2 2.3-0.5 1.5 0.7 2.5 5.1 2.3 1.7 8.2 0.6 8.9-2.3 5.3-3.1 0.7-2-0.1-4.3 0.5-1.4 1.6-0.2 5 1.1 14.6-0.2 12.5-2.6 5.1-2.3 2.3-2.3 6.3-9.5 11.5-7 6-5.1 2.9-7.6 44.9-24.1 7.9-0.3 0.2 0z" id="FIN3188" name="South Karelia">
 </path>
 <path d="M816.2 1884.2l-2.9 7.6-6 5.1-11.5 7-6.3 9.5-2.3 2.3-5.1 2.3-12.5 2.6-14.6 0.2-5-1.1-1.6 0.2-0.5 1.4 0.1 4.3-0.7 2-5.3 3.1-8.9 2.3-8.2-0.6-2.3-1.7-2.5-5.1-1.5-0.7-2.3 0.5-2 2.2-2 3.1-0.4 1.1-1 3.4-1.2 2.1-5 5.4-14.6 8.6-58.5 2.5-21.6-7.7-4.8-0.6-4.4 0.8-8.1 5.1-2 0.3-6.6-0.7-3.1 1.1-1.5 1.8 0.7 3 15.3 3 8.8-0.3 1.4 1-1.1 1.1-1.6 0.5 1.4 2.1 3.3 3.1 4.9 6.8 0.2 3.1-0.8 1.4 1 2.1 2.3 1 2.3 0 0.3 1.7-0.6 0.8-0.8 0.5-0.6 0.8-0.1 2.1-1.6 1.9-1.7 0.6-10.7 1.2-19.3 2-5.3-3.7-1.3-2.6-0.3-1.1-0.7-6.8-0.8-2.6-1.1-1.7-0.9-2.1-0.3-2.1-1.1-2.3-3.1 0.2-2 0.6-1.7 1.1-1.1 1.4-1.3 3.7-0.9 1.4-2.6 2.5-3.1 2.2-3.1 0.9-1.4-0.4-0.8-1.8 0.4-0.8 1.9-4.3-0.4-1.7-0.7-1.1-0.8-2.1-0.9-1.6-2.1-0.9-8.8 2.6-1.5-5-1.8-2.2-6.9-2.4-2.9-2-4.9-5.2-1.3-0.6-0.9-1.1 1-2.8 1.3-2.2-0.4-1.1-2.8-2.1-1.7-2.1-0.8-2.7 0.4-1.2 1.6-4.5 0.5-1.8-0.3-1.1-1.9-3.4 0.6-2.2 1-1.5 1.2-0.7 0.2-1.5-0.3-4.4-0.4-2-0.4-1.2 0.1-0.8 3.2 0.7 0.3-0.6 0-0.9 0.1-3.1-0.2-2 1-0.4 2.2-1.5 0.4-1.3-0.1-0.9 0.3-1.4 1.1-3 2-0.9 9.3 4.9 1.7-1.4 1.3-9.2 0-3-0.8-2.6-3-6.2-1.2-2.1-8.1-8.9-0.7-1.5-0.5-3.2 0.6-7.1 0-1.9-0.8-1.7-2.8-0.1-0.5 0.2 1-6 0.2-4.8 1.2-3.5 2.4-1.5 0.3-4.9-13-21.4-0.3-7 8.2-11.9 6-5.1 2.2-0.1 2.6 2.3 0.7-0.3 1.3-1.1 1.7-2.2 0.2-1.2-1.1-0.6 1.5-2.2 1.9-0.9 1.1-0.2 2.2 0.5 1 0.8 2.5 2.8 2.5 1.7 2.3 0.2 0.8-0.9-0.9-0.9-1-2.1 0-1.6-0.3-2.7-0.5-2.3-0.4-1 0.4-2.2 2.6-0.9 1.3-1.2 0.6-0.9 0.2-1.4-1.2-0.6 0.7-2.3 1.1-1.4 2.7-1.6 4.4-1.2 0.3-1.5-6.6-6.2-0.6-2.2 1-2.6 0.6-2.7 0.6-3.8 5.3 3.7 2.9 0 1.7-1 1.3-1.8-1.2-0.6 0.8-1.8 1-1.5 1.8-1.5 1.8-0.1 6.5 4 1.4 0-0.6-1.9-0.1-3 1-0.6 1.3 0.1 4.4 1.8 3.3-0.4 4.9-2.8 1.7 0.4 1.6 0.8 1.8 2.5 0.5 1.1 1.7 0 4.7-2 2.2-0.2 2.4-1 3.6-3.3 0.6-0.4 0.6-1.2-0.9-3.2 3 0.8 0.5 0.7 2.9 1.6 2.1 2.6 1.8 0.5 2.6 2.5 1.6 1 3.2 3.8 11.6 11.6 2.1 1.6-0.3 2 4.2 1.1 2.6 1.3-1.9 4.7 1.9 4.1 6.8 7.8 0.9-0.3 3.2-0.2 1.5-0.8 2.3 2 2 2.4 1.9 0.6 0.9-1.2 0.4-2.1-2-0.1 1.3-0.9 5.6 0.3 3-1.1 0.6-2.3 1.4-3.7 10.9-7.3 2.7-0.4 3.3 0.4 3.2-0.8 1.2-1.5 0.4-2.6-0.5-0.3-2.5-1.7-0.7-1.7-0.2-1.4-0.7-1.9-1.1-1.2-0.8-0.4-0.2-1.4 0.6-0.9 1.2-1.1 1.2-0.3 0.7 0.1 0.7-0.5 0.2-1.1-0.3-0.9-1.4-1.2-0.4-1.1 0.9-1.1 6.7 2.5 1.9-0.6 0.8-2.5-0.5-2.3-1.7-2.8 1-2.1 1-1 0.9-2.7 1.1-7.3-0.6-1 0.4-1.2 1.7 1.7 7.3 1.6 0.8 1 1.3-0.7 0.1-2.4-5.2-2 1.5-1.2 9.2-0.7 1.8-1.1 1.4-1.8-2-0.2 1-1.3 1.4-2.4 1.2-2.8 0.9-2.8 13.8 4.5 1.6 1.1 7.9 8 1.7 1 2.1 2.7 0.7 1.5 2.3 2.7 3.9 3 0.8 1.1-2.3 1.9 0.8 1 7.6 3.6 0.6 1.6-0.6 1.2-0.9 2.9-0.8 3.6-0.4 2 0 2.5 0.8 0.6 1.1 0.3 0.3 0.4-0.6 3.5 0.9 0.9 2.9 1.4 1.5-0.1 0.2-0.8 1.9-4 2.4-1.5 3.7 1.6 2.9 5.2 2.9 10 2.4 6.5 1.5 3.1 3.4 5.4 1.8 2.1 0.7 4.8-0.5 4 0.6 7.7 1.8 7 1.6 5 3.2 7.3 4.6 6.9 5.5 5.6 2.6 1.9 2.1 2.8-2.1 4-1.1 3.3-0.4 2.3 0.6 3.4 5.7 5.9 0.6 1.6-1.8 3.2 1.5 1.5 0.4 3.5-3.7 8-8.1 11.4z" id="FIN3189" name="Southern Savonia">
 </path>
 <path d="M855.8 1481.4l-1.6 1.1 1.8 5.4 22 27.4 12.6 10.2 5.5 8.3 1.8 3.8 2.6 2.2 30.3 17.6 14 17.6 18.5 13 2.4 2.5 2 3.4 0.6 4.1 0.1 3.7 0.6 4.4 0.9 4 1.1 3 2.4 3.2 5.7 4.6 2.7 2.8 5.8 9.3 3.3 3.1 2.3 3.7 1.2 5 1.5 4.7 3.1 2.7-8.1 16-3.6 7.5-2.8 8.4-4.3 18.8-1.5 4.5-4 6.6-1.7 4.5-2.2 9.5-1.5 4.3-2 2.3-4.9 3.1-1.4 1.7-1 2.1-1.7 4.3-13 15-1.2 2-2.3 6.6-1.5 2.5-1.7 1.8-10.3 7.8-8.2 8.4-3.5 2-1.6 1.4-1.2 1.7-2.5 6.4-11.6 16.3-12.8 14.8-17.7 27.3-0.2 0-7.9 0.3-44.9 24.1 8.1-11.4 3.7-8-0.4-3.5-1.5-1.5 1.8-3.2-0.6-1.6-5.7-5.9-0.6-3.4 0.4-2.3 1.1-3.3 2.1-4-2.1-2.8-2.6-1.9-5.5-5.6-4.6-6.9-3.2-7.3-1.6-5-1.8-7-0.6-7.7 0.5-4-0.7-4.8-1.8-2.1-3.4-5.4-1.5-3.1-2.4-6.5-2.9-10-2.9-5.2-3.7-1.6-2.4 1.5-1.9 4-0.2 0.8-1.5 0.1-2.9-1.4-0.9-0.9 0.6-3.5-0.3-0.4-1.1-0.3-0.8-0.6 0-2.5 0.4-2 0.8-3.6 0.9-2.9 0.6-1.2-0.6-1.6-7.6-3.6-0.8-1 2.3-1.9-0.8-1.1-3.9-3-2.3-2.7-0.7-1.5-2.1-2.7-1.7-1-7.9-8-1.6-1.1-13.8-4.5 0.8-3.4 1.1-2.2 0.7-0.8 1.4-1.3-5.1-10.4 2.4-4.4 4.9-2.9 1.6-2.5 2.3-6.4 2.4-0.5 3.9 2.5 3.7 4.2 4.1 2.5 2.9-1.3 11.5-9.8 0.6-2.5-4.5-2.5-2.6-2.8-2.1-4.2-2.9-2.1-1.4-1.9-0.6-2 0.5-1.6 0.7 0.8 1.5 1 1.6 0.2 0.9-0.4 0.3-1.1-2.3-2.5 0.6-1.9 1.2-1 5.2-3.1 1.1-1.2-0.5-3.5-16-12.3-14.3-21-4.3-4.6-2.8-2-2.2-2.4 3.6-5.6 0.3-1.3-1.2-0.8 0.5-1 4.8-3.9 0.4-1.2-1-1.3 0.4-1.4 3-4.2 1.1-2.4 0.4-2.6 0.2-4.7 0.2-1.7 0.4-1.9-0.8-2.8-4-3.4-2.5-2.8-1.9-3.3-1.2-4.4-0.8-4.7-1.1-4.5-0.9-2.1-0.5-3.8 0.9-1.5 1.8-1.2 2-0.3 1.1-0.4-1.4-2.4-2.4-2.4-1.7-4.7-0.7-5.5-1.7-7.1 1.7-3.5-1-1.7-1.5-1.1-2.7-1.2-7.3-0.8-2.2-1.7-5.1-7.3-2.9-2.6 7.6-14.8 1.3-3.5 0.6-2.3 0.3-3.8 4.8-2.2 4.9-0.3 33.1 8.6 65.8-6.5 1.4 0.9 1.3 2.3 4.5 26 0.7 1.5 1.4 1.9 0.7 0.3 1.5-0.2 13.4-6.8 4.8-0.8 1.5 1z" id="FIN3190" name="North Karelia">
 </path>
 <path d="M69.4 2246.2l0.5 0.4 0.7 0.1-0.5 1.2-0.8 0.3-0.5-0.9-0.1-1 0.7-0.1z m88-4l-0.5 0.4-0.8 0-0.4 0.6-0.5-0.4-0.2-1 0.3-0.7 0.2-2.2 1.5 2.4 0.4 0.9z m-63.7-4.6l-1 1-1.1 0.4-0.9 0-2.7 1.7-0.7-0.8 2.3-2.2 2.3 0.1 1.9-0.6-0.1 0.4z m68.9-4.8l0.9 1-0.4 2-0.3 0.1-2-1.1-0.1-0.6 0.8-0.4 0.5-0.9 0.6-0.1z m-28.2 0.3l-1.6 0.3 0.2-0.8 1.3-0.8 1.1 0.2-1 1.1z m10.9-2l-1.9 0.5-0.9-0.3-0.2-0.5 0.9-1.1 1-0.2 1 0.7 0.1 0.9z m21.7 3.1l-1.5 0.3-1-0.6-0.2-1.5 0.7-0.8 1.1-0.2 2.1-1.2 2.1-0.2 0.7-0.4 1-0.2 1.1 0.2 0.2 0.5-0.7 0.9-5.6 3.2z m5.7-6l-2.6 1.6-0.4-1.4 0.3-0.8 4.3-2.1 0.7 0.3-0.8 2-0.7 0.3-0.8 0.1z m4.1-3.1l-0.5 0.9-0.4-0.9 0.1-1.2 1.3 0.2-0.5 1z m-16.1-2l-1.6 1.2-0.6-0.6 0.7-1.5 1.1-1.3 0.7-0.2 0.7 0.6-0.1 0.4-0.9 1.4z m-53.1-0.3l-0.4 0.3-0.8-1.3 0.2-2 1.1 0.2 0.6 1.2-0.3 1-0.4 0.6z m62.5-1.7l-0.2 1.1-1.5-1.3 0-1.2 0.4-1.9 0.4-0.1 0.4 0.9-0.1 0.6 0.6 1.9z m9-4.4l-1.8 0.6 0.9-1.6 1.8-0.5-0.9 1.5z m-87.7-1.5l0.7 0.5 0.5 0.8-2.1-0.1-0.3-0.9 0.5-0.9 0.7 0.6z m93.8 3l0 0.6-1.4-0.7-3.6-3.5 0.9-0.5 1.5-0.2 1 0.5 0.4 0.9 1.6 0.4 0.3 0.8-1.1 0.6 0.4 1.1z m-25.4-1.1l-1.9 2.2-0.4-0.2-0.6-1.4-0.3-1.1 0.4-2.2 0.3-0.4 1.2-0.2 1.7 0.7 0.2 1.1-0.1 0.8-0.5 0.7z m-54.5 0.2l-0.9 0.4-0.7-0.5 0.3-0.7 0.7-0.6-0.5-1.3 0.1-1 0.4-0.2 1.8 0.2 0.7 1.1-0.5 1.2-1.4 1.4z m71-4.1l-3.4 1.4-0.4-0.8-0.1-1 0.2-1.8 1.1-1.3 2.4 0.2 0.9 0.8 0.3 1.2-1 1.3z m-8.4-1.7l1.1 0 0.2 1.2-0.1 0.9-1.3-0.3-0.8 0.1-0.5 0.7-0.6 0.5-0.5 2.2 0 1.6-0.3 1.9-1.2 1-0.7-0.9-0.6-1.6-0.2-2.3 1-2 1.2-0.7-0.5-0.7 0.1-0.8 0.6-0.9 1.2-0.1 0.4-1.3 0.7-0.4 0.5 0.8 0.3 1.1z m17.6 2.5l-1.1 0.3-2.1-1.4-0.6-1 0.1-1 0.8-1.9 0.5-0.2 0.9 1.1 1.7 3.3-0.2 0.8z m-26.3-0.8l-1 0.2-0.8-1 0.2-1.2 0.6-1.9 1.3-1.7 0.6-0.1 0.4 0.6-1.2 4-0.1 1.1z m-80.9-10.8l-1.2 0.1 0.3-1.8 0.9 0.3 0 1.4z m133.4 2.4l-0.5 1.4-0.4 0-0.7-0.9-0.7 0-0.4-0.7 0.2-0.9 1.1-0.7-0.1-1.3 0.4-1.3 0.9-1.5 1.3-1 0.9 0.2 0.6 0.6 1 1.9-0.2 0.6-0.9 1-0.4 0.9-0.6 0.5-0.8 0.2-0.7 1z m-10.8-4.7l-0.4 1.2-0.7-0.6-0.3-1.8 0.2-1.2 0.6 0.1 0.5 0.7 0.1 1.6z m5.9 5l-0.7 0.9-1.2-1-0.8-3 0.4-2.4 2.6-0.3 0-0.9-0.8-0.7-1.2 0-0.6-0.7 0.7-1.3 2.2-0.9 2.8-0.2 0.8 0.6-0.6 1.3-0.3 1.6-0.5 1.4-1 0.8-0.6 0.8-0.9 2.5-0.3 1.5z m-137.2-11.2l-0.5 0.6-0.5-0.1 0-0.7-1.1-0.5 1.1-0.6 1 1.3z m97.9 1.1l0 6.7-0.1 3.2-0.5 2.7-0.6 0-1-1.7-1.4-0.5-1.4 0.8-0.6 1.9-0.5 0.4-1-2.2-1.1-3-0.6-2.1-0.3-2.7-0.1-2.9 0.6-2.3 1.4-0.9 1.1 1.1 0.1 2.3 0.3 1.9 2-0.2-0.6-4.2 0.9-1.7 1.7 0.6 1.7 2.8z m46.8-5.6l-0.5 1.5-1 0.8-0.9 0.1-0.8-1.1-1.1 1-1.5 0.6-2.6-0.1-0.8 0.1-1.5-0.2 0-0.6 1-1.1 0.7-1.7 0.8-1.6 1.7-1.7 2.3-1.1 1.9 0.1 1.1 1.1 0.7 1.4 0.4 1.2 0.1 1.3z m-88.9-2.7l-1.5 0.1-2.5-0.4-1.3-2 0.6-1.3 1.3-0.8 1.1-0.4 1.4 1.3 2 0.5 1.2 1-0.5 1.3-1.8 0.7z m-83-3.7l-0.8-1.4 0.4-1.1 0.7-0.4 0.5 1-0.1 1.2-0.7 0.7z m96.1-1.6l-0.9 0.4-1-0.1-0.4-0.8 0.5-1.8 1.2-1.1 0.8 0.6 0.1 1.5-0.3 1.3z m-20.5-2.6l0.6 0.9-0.5 0.4-0.9-0.5-0.9 0.4 0 0.4 1.1 0.2-0.2 0.8-1 1-4.3 0-0.6-0.7 0-0.6 0.9-1.6 2.4-0.6 0.7-0.8 0.6-0.1 2.1 0.8z m32.6 4.1l-1 0.5-0.4-2.4 0.2-1.2 0.5-1.2 0.9-0.5 1.5-0.6-0.1 3-0.4 1.2-1.2 1.2z m-87.2-3.4l-1 0.4-0.2-0.7 0.3-1.8 0.3-1 0.5-0.2 0.7 0.5 0.2 1.3-0.8 1.5z m30.1 2.3l-2.2 1.7 1.5 0.2 0.6 0.8-0.1 1.4-0.8 1.6-1.2 1-1.3-0.1-2.5-0.9-0.9 0.2-2.5 0.9-0.9 0.7-0.9 0-1-1-1-1.3-1-0.8 1.6-1.2 1.7-0.3 3.6 0.2-0.8-2.2-1.4-0.6-3.4 0.3 3.1-4.4 3.7-2 4 0.3 3.6 2.3-0.6 2-0.9 1.2z m55.6-5.4l-3.6 0.9-0.6-0.3-0.5-1 0.1-0.7 1.1-0.9 4.8 0.9-1.3 1.1z m-9.9-2.3l-3.7 2.2-0.6-0.4 0.9-1.1 1.2-0.7 0.4-0.4 0.2-1.4 0.7-0.5 0.9-0.4 0.7 0.4-0.7 2.3z m-22.9-0.6l0 1.4-2 0-0.9 0.4-0.9 0.7 0.6 0.6 1.4 2-7 0 3.2 1.2-0.8 0.7-1.5 1.1 0.4 0.8-2 2.2-2.9 1.5-2.9 0.3-2.2-1.5 1-1.4-0.4-2.3 1.8-1.4 0-1.2-1.6-0.8 0.3-2.1 1.4-2.1 1.9-1.3 5.1-1.1 4.9-0.1 3.1 2.4z m-20.8-0.3l-2.9 0-1.6-1.1-0.6-0.8-0.2-1 3.5 0 1.1 0.6 0.9 1 0.1 0.7-0.3 0.6z m60.5 7.1l-2.2 0-1-0.6 0.4-0.4-0.2-2.3 0.3-1 0.4-0.4 0.1-1.8 0.5-1.2 0.8-0.6 5.6-2.2 1 1.6-1.6 3.3-2.2 1.6-2.2 0.8-0.1 0.8 1.3 1.1 0.3 1-1.2 0.3z m-84.7-8.1l5 0.1 0 1.2-3.6-0.1-1.4 1.1-0.6 2.9-0.6 0-0.8-1.4-1.4-0.8-2.8-0.3-1.4-0.6-0.9-1.1-1-1-1.8 0.1 1.4-2.5 1.9-1 4.3-0.3 1.4 2.7 2.3 1z m56.1 9.8l-2.9 0.4-2.5-2.5-1.4-5 1.4-0.9 4.3-1.7 2.6-2.8 1.4-1 1.6 0 1.2 2.6-5.5 4.9 1.8 2.2 0.6 0.4-2.6 3.4z m32.8-15.4l-0.5 0.4-0.8-0.2-0.5 0.4-0.5 1.2-0.7 0.7-1 0.4-1.3-0.4-0.3-1.2 2.4-2.6 2.7-0.1 0.6 0.5-0.1 0.9z m-26.1-2.9l-1.5 1.7-0.6-0.3-1.4-2.3 0.1-0.6 1.9-1.4 0.8 0.2 0.8 0.6 0.5 1-0.6 1.1z m17 7.6l-3.4 2-2.1-3.5 1.2-3.6 2.1-3.6 2.4-1.8 1.8 1.5 0.5 4.3-2.5 4.7z m-44.2-10.4l-2.9 1.4-0.2-1.3 0.4-0.9 0.9-0.7 1-0.1 0.9 0.5-0.1 1.1z m-6.5-1l-0.9 0.7-1.1-0.2 0.4-1.2 1.9-0.2-0.3 0.9z m-10.6 0.2l0.3 0.4 1.4-0.1 1 0.5-0.5 1.7-1 1.6-0.8 2.2-2.2 0.2-1.3-0.9-0.1-2.5 0.8-2.9 1.5-2.5 1.6 0.1 0.2 1.5-0.9 0.7z m-15.6-2.5l-3.7 0.3-0.3-0.4-0.3-1.7 0.5-0.6 2.9-0.5 0.3-0.5 1-0.3 1.3 0.3 0.2 1-0.3 1.6-1.6 0.8z m128.3 14.2l0.1 2 0.5 2.2-0.6 0.2-1.3 1.2 1.9 1.2-0.6 2.6 1.2 5.6-3 5.3-7.6 6.5 0 1.3 0.9-0.1 0.5 0.3 1.1 1.1-0.9 1.2-1.1 3.2-0.5 0.6-2.3-0.3-0.9 0.3-1.2 1.4-1.2-3.4-1.3-3-0.8 1.9-2.9 3.7-0.5 0.3-0.3 0.8 0.1 2.1-0.5 0 0.1-2.6-0.3-1.7-0.6-0.6-1.2 1.1-0.4-2.2 0.6-1.4 0.8-1.5 0.3-2.5-1.1 1.5-3.2 3.2-1.5 2.3-3.9 1.2-1.5 0.8-0.1-4.8 0.2-2.2 0.5-2-0.5-2.2 0.5-4.3-0.3-1.6-1.1-1.2-2.4-1.4-1.2-1.7 1.9-0.8 3.4-2.4 1.9-0.6 9.1 0 0-1.2-16.9-1.4 1-4 0.7-5.1 1.3-4.1 2.6-0.6-1.9 4.5-0.5 2.1 1.5 0.9 9.1-1.7 3.2-2.4 1.7-0.9 17.7-2.9 2.6-2.7 2.1-4.3 2.3-3.8 2.7-2 3.2 0.7-0.6 4.1-1.7 2.4-2.2 1.8-2 2.3-0.7 1.7-0.4 1.9-0.5 1.5-2.5 1.1-0.6 1.5z m-77.5-16.9l-0.9 0 0.5-0.7 1.6-1.3 1.1-0.2-0.2 0.9-1 0.9-1.1 0.4z m-28.4 0.3l-2.6 0.2-1-0.4-0.2-0.5 0.8-1.7 0.6-0.4 1.4 0.5 1.2 1.4-0.2 0.9z m16.4-0.3l-1.2 0.3-2.2-2.6 0.5-0.2 1.4 0.9 1.8 0.3 0.1 0.7-0.4 0.6z m-11.4-1.1l-1.1 0.1-1.1-1.2 0.8-1.1 0.9 0 0.6 1.2-0.1 1z m-14.8 0.7l-0.4 0.6-3-0.5-0.5-0.5 0-0.6 1-1 1.3-0.3 0.8-0.7 1.4 0.4 0.9 1.4-0.1 0.7-1.4 0.5z m36.1-4.6l1.2 0.6 0.2 1.2-1.7 3.9-1.1 0.8-1.7 0-1.5-0.6-1.3-1.7-1 0-0.8-2.8 0.4-1.1 1.4 0 1.2 0.2 1.5-0.6 3.2 0.1z m34.6 4.8l-0.2 2.2-0.5 0.9-1.7 0.7-0.7-0.2-1.4-1.2-2.3 2.4-0.4 0.2-4.1 1.1-1.4-0.2 1.5-2.1-1.2-2-2.1-0.9-2.2-0.1-1.4 0.6 3.7 0-1.7 3.6-2.4-0.6-2.5-1.6-1.8 0.4-0.9-0.1-0.3-2.6 0.7-3.3 2.1-2.2 2.3-0.4 10.7 0.8 6.5 2.6 1.7 2z m8.1-8.8l1.4 0.2 1.2-0.2 1.1 0.5 0.7 1.9-2 2.2-2.7 1.8-2.8 1.1-2.5 0.1 0.7-1.2 0.5-1.2 0.7-2.8-1.6 1.2-1.8 0.2-3.4-1.4 1.5-3 1.9-1.9 2.1-1.1 2.2-0.3 0.4 0.4-0.1 2.2 2.5 1.3z m-115.9-1.9l-0.4 0.8-0.8-0.1-0.3-1.5 0.8-1.4 0.9-0.6 0.5 0.2-0.1 1-0.7 0.7 0.1 0.9z m50.6-0.5l-0.1 1.1-0.8 0.3-2.4-1.1-1.3 0.4-0.6-0.6-0.4-1-0.7-1.1 0.2-0.9 1.1-0.4 2.1 0.7 1.4 1.6 0.8 0.3 0.7 0.7z m44.7 0.7l-1 0.3-2-0.5-1.1-1.4-0.1-1.2 0.7-0.6 8.3-2.3 2.7-0.1 1.3 1.3-0.9 1.8-7.9 2.7z m-37.8-5.8l-0.5 0.6-2.9 1-1.7-0.3-0.3-0.7 0.5-1.1 0.8-0.1 0.6 0.8 0.6 0.2 1.8-1 0.8-0.1 0.3 0.7z m38.2-0.1l-8.6 4.1-0.8-0.2 1.7-3.2 1.4-1.4 0.8-0.2 5.4-0.4 0.1 1.3z m-48.8-0.7l0.3 1.3 1.1 0 0.8 0.6 0.3 0.8-0.7 0.4-2.2-1.5-1.2-0.5-1-0.7 0.8-1 1 0.1 0.8 0.5z m-17.8 3.6l-0.8 0 0-0.9 0.6-1.3-0.1-0.8-0.6-1.4 0.1-0.6 1.1-0.5 0.9 1.1-0.3 1.5 0.3 0.8-0.9 1.3-0.3 0.8z m-11.3-2l0.4 2.3-0.1 1.1-0.9-0.3-0.7 0.1-0.4-0.5 0-1.3-0.9-0.7-1.8 0.4-0.9-1.1 0.2-1.3 1-2.2 1.1-0.4 1.7 1.5 1.3 2.4z m4.8-0.6l-0.3 1.1-3.3-2.6-0.9-2.2 0.2-1.1 0.7-1 0.9 0.1 2.2 1.3 0.5 1 0 3.4z m2.1-8.9l0.7 1.9 0 1.4-0.6 0.8-0.8 0.2-0.7-0.5-0.2-0.9 0.1-1.2-0.5 0.2-0.4-0.7 1.3-1.8 0.5-0.5 0.6 1.1z m-18.4 3l0 1-1.3-0.6-0.4 1-0.8-0.8-0.1-1.3 0.2-0.8 0.7 0-0.1-0.8 0.4-1.8 0.8 0.1 0.1 2.2 0.5 1.8z m44.2-2.2l-1 1-0.8-0.9-0.2-1 0.1-1.2 0.4-1.5-1.2-0.3-0.4-1 0.1-0.8 0.8-0.2 1.3 0.7 0.8 1.4 0.3 2 0.3 0.3-0.5 1.5z m-6.5-5.8l0.3 2.5-0.2 1.6-1.4 0.1-0.2 1.8-0.7 1.3-0.8 0.4-0.7-0.5 0.5-1.1-0.3-2.7 0.4-1.7 0.5-0.2 0.3-1.1 0.7-0.9 0.9-0.5 0.7 1z m28.3 8.6l0 1.2-2.7-1-1.3-0.1-1.1 1.1 1.2 1 2.7 1.4 1.2 1.4-0.7 1.3 2.9-0.2 1.3 0.6 0.8 2-2.2 1.4 0.6 0.9 1.6 0.3 0 1.3-1.6 1-1.8 0.2-1.7-0.4-1.8-0.8-1.3 1.4-0.6-0.1 0-2.6-2-1.8-1-0.6-2.8-0.6-2.1-1.3-1.8-1.8-0.8-2.1 0.6-2.1 1.5-1.5 1.8-0.8 1.6 0 0-1.3-4.4-5 0.4-2.4 0.5-1.9 0.9-1 1.3 0.2 1.5 1.4 4 2.7 0.8 1.6 0.3 1.6 0.8 1 0.9 0.4 0.8 0.1 1.7 3.9z m-25.6-11.1l-1.2 0.4-1.2-0.3-0.3-1 0.4-0.6 0-1.1 1.5-0.2 0.6 0.5 0.6 1-0.4 1.3z m-9.1-8l-1.3 2.1-0.2 1.6-0.6 0.3-1.5-1.7-1.5-0.5 0.1-0.9 0.8-2.3 1-0.2 0.9 1.3 1 0.1-0.4-1.9-0.1-1.1 0.5-0.4 0.9 0.7 0.6 1.1 0.1 0.8-0.3 1z m11.9 8.5l-1.1 0.8-0.6-1.8 0.9-3.5 2.1-4.5 2.5-3.3 2 0.1-0.3 2.5-0.9 1.9-2.3 3.7-0.9 2-1.4 2.1z m-34.2-4.1l-0.6 0-1.7-1.1-3.1-0.4-1.4-1.6 0.9-3.9-0.7-2.2-1.3-1.9-0.8-3.3 1.9 0 2.5 3.2 2.5 4.3 0.2 1.8 1.6 5.1z m12.5-10.6l1.8 2.5-1 0.4-0.7-0.4-0.4 1.8-0.2 1.7 0.1 1.5 0.5 1.2-1.5-0.2-1.2 0.8-0.3 1.4 1.1 1.9-2.3-1.2-2.3-2.3-1.9-3.4-1-4.6-1.2 1.9-1 0.7-0.7-1.1-0.2-3.3 0.7-2.7 1.7-0.8 3.8 0.4 1.5 3.1 4.7 0.7z m-14.9-5.2l-1.6 0.2-0.7-1.2-0.3-1.7-0.5-1.1-1.9-0.6-1-0.6-0.9-1.4-0.8-2.7 0.4-1.2 2.2-1.1 0.6-1.3 0.3-1.5 0.6-0.7 1 0.8 0.1 1.6 0.3 1.4 0.6 1.2 0.9 1-0.7 2.6-0.5 2.8 0.3 1.9 1.6 0.3 0 1.3z m1.9-26.5l-2 0.4-0.9-0.4-0.3-0.5 0.7-1.2 1-0.2 1.3 0.8 0.2 1.1z m-27.6-1.3l-0.7 0.2-0.4-0.9 0.1-1.2 0.9-1.1 1-0.6 0.2 0.7-0.6 1.3-0.2 0.9-0.3 0.7z m23.9-8.1l-2.2 0.5-0.3-0.6-0.1-0.8 1.2-0.6 1.1 0.6 0.3 0.9z m8 2.6l-1.2 0.4-0.8-0.9-0.6-1.1-0.7-0.7-0.3-1 0.7-0.7 1.2-0.3 0.9 0.7 1.4 2.2-0.6 1.4z m-6.5-3.2l-0.5 0.2-1.2-0.9-0.5-0.7 0.2-0.8 0.6-0.1 1.7 0.4 0.2 0.9-0.5 1z m-11.7-4.8l0.6 0 0.2 1.5-0.8 0-2.6-1.1-0.7-1.6-0.1-1.1 0.5-0.2 0.5-1 0.7 0.7 0.1 0.6 1.6 2.2z m9.8-3.2l-1 0.6-1-0.2-0.7-0.5-0.2-0.7 0.4-0.6 2-1 1.3 1.5-0.8 0.9z m5.1-2.6l-0.2 1.4-0.9-0.1-1.1-1.1 0.1-0.5 1.4-0.6 0.7 0.9z m-1.5-2.2l-0.3 1.4-0.4 0.3-1.6-0.1-0.6-1.1 1.2 0 0.5-1.7 0.7 0.3 0.5 0.9z m-25.3-0.7l-0.4 0.2-2.1-1.5-0.5-0.8 0.7-0.4 1.1 0.5 1.1 1.5 0.1 0.5z m17.1-2.8l0.2 0.6 0.8-0.2 1 0.4 0.5-0.2 0.7-1.1 0.7 0.4 0.1 2.5-0.4 1.4-1.2-0.5-3.7-2.3-0.8-0.6-1.4-1.5 0.3-0.8 1.6-0.5 1.4 0.8 0.2 1.6z m9.3-7.3l-0.7 1.7-1.9 0.2-2-0.7-1 0.2-3 0-1.4-0.4-1.3-1 2.3-1.9 4.5 2 2-1.3-0.3-0.7-0.4-1.9 0.6-0.5 1.3-2-2.6-3.7-1.7-1.3-2-0.2 2.5-3.2 1.3-0.8 1.9 0.1 1.5 2.9 1.4 1.8 3.4 3-1.8 2-1.5 0.6-0.9 1.2-0.2 3.9z m-12.4-18.7l-1.3 0.2-0.1-1.2 1-0.6 0.3 0.6 0.1 1z m183-2l3.9 5.2 2.2 2 1.4 0.6 1.5 2.2-0.1 1.9-0.6 2.7-1.2 1.2-1.7 0.2 1 4-1.5 0.3-5.4-0.7-3.1 1-1.8 3.6 0.3 4.6 2.2 2.2 4.2 1 0.4 1.8-1.2 1.1-1.7 2.1-1.4 2.7-0.6 1.5 1.3 3 5.1 4.5 3.2 2.2 3.7 0.9 4.4-0.7 8.6-3.4 2.4-0.3 3.2 3.8 1.4 2.5 4 2.8 7.4 1.6 4.7 5.2 5.6 1.7 12 0.7-1.5 2.9 0 2.3 1.2 1.6 1.1 0.6 0.7 2.1-0.5 1.8-1.4 3.1-1.7 2.2-1.2 0.5-0.5 2.6 0.6 2.5 0.3 3.1-1.3 2-9.7 2.8-2.3 1.9-1.8 4.5 7.2 0.4 1.3 2.9 0.1 2.8-0.7 4.8-2 3.2-1.7 0.8-1.2 4.9-0.7 4.6-3.8 4.2-3.9 2.5-0.9 1.7-0.5 2.2-1.6-0.1-1.4 0.7 0.7 0.9 1.1 0.7 1.8 2 1.3 2.8 0.4 2-0.8 2.7-1.1 0.2-5.1-1.2-1 0-1.9 0.7-5 4.7-4.4 1.9-4.2 0.7-3.7-0.5-1.7-0.5-1.5-1.3 0.7-2.3-1.3-0.3-1.3 0.9-9.4 10.7-7.2 5.2-4.1 1-3.7-2.2-0.7-1 2.3-2.7-1.9-2.5-0.5 1.2-1.4 3.9-0.7 0.7-1.7 0.9-0.8 0.8-0.1-3-0.9-2-1.4-1-3.2-0.8-1.9-2.5-1.1-0.8 0.9-1.9 0.1-1.7-0.6-1.5-1.1-1.2 4.9-8.7 2-2.5 5.9-5.9 1.6-2.9 0.6-1.8 0.6-3.1 0.7-1.4 2.4-2.2 1-1.3-0.3-1.7-1.8-0.4-2.4 2.5-2.1 3.7-1.2 3.2-5.2-1.9-5.8 2.9-12.9 11.5-11.3 3.4-5.3 2.7-2.6 0.2 1.3-1.7 4.9-3.5-1.8-0.5-0.1-1.4 1.7-3.6 0.9-1.1 4.3-1.9-4.5 0.5-2.2 0.9-4.3 3.5-2.2 0.9-4.9 0.4 0.8-1.4 0.1-2.3 0.3-1.4 0.6-0.8 1.7-1.5 1.9-2.9 2.9-3.3 0.5-2.8 4.6-5.5 2.8-2.1 0.4-2.6-0.7-1.8-3.9 4.3-3.4 0.6-7.4-0.5 1.9-5-14.3 3.7-3.2-0.1-1-0.7-2.8-3.3-6.2-4.8-1.9-0.8-4-0.4-0.6-1.3-0.2-2.4-0.7-0.9-1.6 2.7-1.7 2-1.6-0.4-2.6-3.5 0-2.5-1.5 0.2-1.2-0.9-0.6-0.3-0.3-0.8 0.5-2.1-4.5 0 1-3.7 0.4-1.3-1.7-1.1-2.6-0.7-2.7-0.1-1.8 0.7-0.9 1.9 0.4 2.2 2.3 4.7-4.1-1.3-2.1-0.1-1.8 1.4 0.3-3.1 1.3-5.6 0.2-4 0-2.8 0.2-2.6 1.1-1.7 2.4-0.5-1.2-1.6-0.4-1.9 0.2-2 0.9-2.1-6.1 4.6-1.8 2.4-2 1.7-4.8 1-1.6 1.7-0.2 1.5 0.8 2.6-0.3 1.6-0.9 2-0.1 3.1-1.2 2.4-2.6 1.3-3 0.2-2-0.8 2.4-2.4-1.3-3.9-4.7-7.6 1.4-0.2 4.1 1.6 0-1.4-2.1-0.9-6.3-0.4-2.9 1.2-1.1 0.1-0.7-0.5-1.5-1.6-0.9-0.3 0-1.4 0.6-0.1 1.2-1.1-1.2-2.6 2.7 1.1 1.6 0.1 0.7-1.2-4.4-3.8-2-1-1.8-2.4-1.5-3-0.9-2.5 0.2-1.5-0.2-1.1 6.6 2 1.2-0.1 0.6-2.4-0.4-1.9-0.9-1.8-0.9-2.2 4.4 0 0-1.2-2-0.2-1.9-0.8-1.9-1.3-1.7-1.7 1.4-1.1 0.8-0.2 0.9 0.1-2-2.9-1.1-0.9-1.2 0 0.6-2.6-0.6-2.7-1.2-1.6-1.4 0.6-1.2-1.6-0.4-1.1-0.2-1.4 0.9-1.8-1.6-3.8 1.3-0.6 4.5 0.9 2.3-0.2 1.9-2.1-1-0.9-1-0.3-2.3 0-0.7-0.5-1.8-3.3 0.9-0.5 1.7-1.8 0.8-0.4 0.8 0.5 1.5 2 1.1 0.2-0.5-2-0.5-2.1-0.4-1.8-0.8-0.7-1.1-0.3-0.4-0.9-0.2-1.2-0.4-1.4-4.1-8.8-1.6-1.5 1.3-2.1 0.6-0.5-2.5-2.1-0.9-1.6-0.3-2.7 2 0 4 2.9 2.1 0.9 1.9-0.6 0-0.9 1 0.2 2.8 6.1 3.9 2.1 7.4-0.8 2.4-1.6-0.1-1.2 0.1-2.2 0.7-1.6 1.4-0.6 1.1 1 0.5 2.1 0.3 2.3 0.5 1.5 2.3 1.4 2.9 0.6 3-0.6 1.4-0.8 1-2.6 0-1.5 1.2-1.4 2-0.2 1.2 0.1 0.9 0.6-1.3 2.7 3.2 1.6 5.5 4.7 2.2 0.9 2 1.3-0.2 2.4-0.4 1.8 0.6 1.6 2.4 2.7 1 2.2 0 1.4 1.5 1.9 13.3 2.4 2-0.6 3.8-4.8 2.9-1.9 28.8-3.6 1-0.8-0.7-0.6-2.8-3.5 1.2-2.2 2-0.8 13.9 0.5 3.2-0.7 4-1.8 2.4-3-0.7-5.2 0.7-1.2 0.9-2.5-0.2-2.4-0.9-1 0-2.3 1.4-0.2 7.4 6.9 4.3 1.7 2.4 2.5 1.1 0.5 2.3 0.1 4.3-1 3.9 0.5 2.4 2 1.9 2.4 2.5 1.6z" id="FIN3191" name="Finland Proper">
 </path>
 <path d="M69 1996.7l-0.6-0.3 0.1-0.7 0.6 0.2-0.1 0.8z m8.4-12.1l-1.7 0.7-0.9-0.2-0.9-0.8-0.9-1.6 0.8-0.7 2.6 1.2 1 1.4z m-6.6 1.1l3 2.9 0.2 0.9-3.2-1.7-1.8 0.9-1.5 0.1-0.5-1.1-0.4-1.7 0.3-1.1 0.7-0.2 0.9-2.1 1.5-1 1 0.8-0.5 1.6 0.3 1.7z m9.5-30.8l1.7 1.9-0.4 0.8-0.9 0-1.3-0.9-1.6-0.4 0.3-0.7 1.3-0.8 0.9 0.1z m-12.6-23l-1.4 0.2-0.1-1.1 1.2-1 0.8 0.5-0.5 1.4z m14-27.3l-0.7 0-2-0.6-1.5-1-0.2-0.6 1-0.2 1.2-1.9 3.4 1.2 0.4 1-0.4 0.7-0.6 0.1-0.6 1.3z m-6.2-3.3l-0.2 0.4-0.8 0 0 0.9 1.9 3-0.1 0.9-1.1-0.3-1.1-1.5-1.3-2.8-0.6-0.8-0.2-0.7 0.9-0.7 1.5 0.5 1.1 1.1z m139.4 112.1l-4.3-1.7-7.4-6.9-1.4 0.2 0 2.3 0.9 1 0.2 2.4-0.9 2.5-0.7 1.2 0.7 5.2-2.4 3-4 1.8-3.2 0.7-13.9-0.5-2 0.8-1.2 2.2 2.8 3.5 0.7 0.6-1 0.8-28.8 3.6-2.9 1.9-3.8 4.8-2 0.6-13.3-2.4-1.5-1.9 0-1.4-1-2.2-2.4-2.7-0.6-1.6 0.4-1.8 0.2-2.4-2-1.3-2.2-0.9-5.5-4.7-3.2-1.6 1.3-2.7-0.9-0.6-1.2-0.1-2 0.2-1.2 1.4 0 1.5-1 2.6-1.4 0.8-3 0.6-2.9-0.6-2.3-1.4-0.5-1.5-0.3-2.3-0.5-2.1-1.1-1-1.4 0.6-0.7 1.6-0.1 2.2 0.1 1.2-2.4 1.6-7.4 0.8-3.9-2.1-2.8-6.1-1-0.2-0.1-0.5-1.5-1.3-2.2-0.5 2.6-1.7 5.3 2.7 2.6-1-1.2-1.2-1.3-2.2-0.4-2.3 1.2-2-1-4.5-0.6-1.9-1-1.4 0.9-0.1 2.3-1.2-1.3-0.2-1.2-1 1.3-2.7-1.3 0 1.2-1.2 1.4-0.3 3 0.1-0.7-2.6 2.8-1.6 2.8-0.9-1.3-3.9-1.8-1.8-4.3-2.1 0.8-2 1.3-0.9 0.8-1.1-0.4-2.5 3.7 0 0-1.4-0.2-1 0.2-3.5 0-1.9-0.2-1.1-0.7-0.5-0.4-1 0-1.1 0.1-1.8-0.1-1-0.5-3.8-0.6-1.2-1.3-1.5-1.3-0.8-2.5-0.9-1.2-0.9 2.6-1.7 5.8 0.7 2.8-1.6-1.3-2.8-1.4-2.1-2.9-3-6.2-3.3-1.9-1.9 12.2 1.9 3.3-1.9-1.9-5.5-0.5-1-1.3-0.5-2.4 0.8-1.3-0.3-3.7-5.3-0.7-2.1-0.2-0.9 2-1 2.4-0.4 10.5 4.6 5.8 4.1 2.7 1 0-1.5-6.3-6.4-3-4.8-2.1-8.2-1.7-1.4-1.9-1-1.3-1.7-0.2-1.6 0.8-2.8-0.3-1.5-2.1-4.7 0-1.2 1.7 0.6 3.1 2.5 1.4-0.5-2.4-3-6.4-4.6-1.8-4.4 0.3-2.3 0.8-2.6 0.6-2.7-0.2-2.3-1.3-1.1-1.5-0.6-1-1.2 0.4-3-2.8-4-1.4-2.7-0.8-2.5 0.9-0.7 0.7-1.4 0.2-1.3-1.9-1.2-0.3-1.5-0.2-1.8-0.6-1.5-0.9-0.2-4.1 0.2-0.9-0.2 1.9-2.8 2.5-1.8 1.9-3.1 1.7-3.3 2-2.7 4.5-2.5 4.9-0.5 10.7 0.9 26.1 6.8 7.8-1.5 4.1-3.4 10.4-14.1 4.8-3.7 9.9-4.3 4.2-4.4 1.6-2.6 9.6-10 3.5-4.9 1.2-2.9 1.2-3.8 1.3-6.2 3-0.4 7.8 3.9 12.2 2.6 0.1 5.4 1.4 13.7-0.5 2.2-2.1 0.5-3.6 0-1.6 1.6-0.5 2.9 0.3 2.7 0.5 2.5 0.1 2.5-0.1 3.5 0.3 1.3-0.3 0.9-2 2.1-2 1.2-5.9 0.2-3.5 1.7-3 2.5-4 4.8 0.1 2.3 8.2 4.6 1.6 3.3 0.4 2.5 1.7 2.7 2.5 1.2 1.4 0.4 1.4 2.4 0.3 1.8 1.1 1.9 2.7 1.6 0.1 1.6-3.2 0.8-0.6 0.8 0 1.1 2.3 0.8 2 1.6 3 3.6-0.1 4.8-1.5 3.2-3 3-3.3 2.1-2 1.7-1.9 2.8-1.5 4.7-1.5 3.6-0.5 0.7-0.1 1.8 0.3 1.9 0.8 2 1-0.6 0.6-1.6 1.8-1.7 1.2 1.4 0.4 3.9-1.5 3-1.8 0.2-0.4 1.2 0.5 3.2-2.1 4.8-5.6 5.8-0.2 3.8 3.7 6.3 3 2.9 2.5 1 2.2 1.6-0.3 1.4-0.1 2.3 0.4 1.9 0.4 0.9-0.3 1-4.6 1.1-0.6 0.7 0.5 2.4-0.7 0.8-1.5 0.8-0.9 2-1.2 0.7-2.4-1.1-2.6-0.5-0.6 1.4 1.8 6.7 0.4 1.2 0.1 1.2-1.9 1.3 0.2 1.7 0.8 1.4 5 7.6 0.6 1.5 0.3 1.7 0.4 1.5 1 1.4 1.8 0.6 5.9-0.3 11.1 2.4 5.2 3.8 1.7 2.7 0.6 3.7-2.6 0-0.2 2.2 0.3 2.3 1 3.3 1.7 2.2 1.1 0.8 0.5 1.2-2.2 2.1-1.4 1.6-0.6 1 0.5 1.8 1.1 0.2 4.5-0.8 1 0.6-0.1 1.5-0.9 0.3-1.4 0.8-0.7 1.5 0.2 2.2z" id="FIN3192" name="Satakunta">
 </path>
 <path d="M213.3 2249.5l-0.3 0.5-1.2-1.1 0.2-1.3 0.7 0.3 0.5 0.4 0.1 1.2z m56.8-11.8l-0.1 2.4-0.6-0.8-0.4 0.3-0.9-1 1.1-0.8 0.9-0.1z m-14.9-6.3l-3.9 0.9-0.7-1.2 0.9-1-1-1.3 0.8-0.9 4.9-0.1 0.9 0.9-1.5 1.5-0.4 1.2z m-7.7-3.4l-0.8 0.5-1.8-0.2-1.3-1 0.5-0.7 2.1 0 1.6 0.9-0.3 0.5z m-18.4-2.2l-1.4 0.2-0.6-0.9 0.2-0.6-0.6-1.2 0.3-1.8 0.5-0.1 0.5 1 1.1 0.6-0.2 1.1 0.4 0.6-0.2 1.1z m72.5-11.3l-1.1 1-1.1 0-0.2 0.8-0.7 0.3-1.4 0.2-1.3-1.2-0.8-0.2 0.6-1.5 1.4-1.8 2-0.7 2.1 0.6 0.8 0.7-0.3 0.3 0 1.5z m101.8-31.8l-0.6 0.1-0.2-1.4 0.4-1.3 1.3-1.2 1.4 0.1 1 1-0.1 0.6-0.7 0.1-0.4 1.3-1.3 0.1-0.8 0.6z m74.3-12.1l-1.5 0.7-1.3-0.2-0.6-2 0.7-1.5 1.7-0.5 3.2 0.3-1.2 2.4-1 0.8z m-19.9-3.4l0.2 2.6-2.2-1.3-0.7-0.8 0.4-1.3 1.3-2.9-2.8-0.8-2-2.8-0.5-3.7 1.6-3.4 1.5 1.1 7.8 8.4-0.6 1.2-1.6 0.7-1.5 1.2-0.9 1.8z m55-18.5l-0.4 0.5-0.6-0.3-2.6 0.1-0.5-0.4-1.2-3-0.8-1.1-0.2-0.8 0.5-0.5 1.1-0.1 2 0.8 1.1 1.4 1.6 1.2 0.4 1.3-0.4 0.9z m-1.9-80.9l1.8 0.6 3.2-0.5 1.6 0.5 1.2 1.5 1.7 4 0.7 1 0.1 2.9 0 2.6 1.8 3.1 6.2 3.7 3.1 3.1 2.2 3.6 2.4 2.9 3.8 0.7 1 0.7-8 15.6-0.9 6.2 2.7 5.7-1.5 3-0.8 1.2-0.8 0.8-2.6 0-0.6 0.8 0.7 3-1-0.4-1-0.8-1.7-2.6 0.1 2.1-0.3 1.2-0.7 0.4-1 0.1-1 0.6-0.3 2.6-0.6 0.6-1.6-1.4-1.3-3-1-3.1-0.8-1.4-1.1-1-1.4-2.2-1.6-1.9-1.3 0.1-0.2 2.2 1.3 2.7 2.7 4-8.6-1.5-0.7 0.2-1.8 2-0.8 0.5-0.7-1.3-3.7-3.8-2.9-1.6-1.2-1-3.2-4.6-3-2.5-3.2-1.5-2.6-0.2 0 1.3 4.9 2.4 1 1.3 2 3.3 2.3 1.3 0.6 1.6 0.3 1.9 0.1 1.5-0.7 1-1.4-0.2-1 0.2 0.5 2.3 1 1.4 3.4 2.3 1.8 3.3 0.8 1.2 1.2 0.5 0.6 1-0.2 2.1-0.6 2.3-0.8 1-4.6 1.2-0.1-4.2-3.9-5.9 0.9-2.5-1.2 0.1-1.5 1.8-0.8 0.5-1-0.1-0.8-0.6-5.5-5.6-1.9-1.4-2.3-1 3.3 4.5 1.9 2 1.7 1.1-0.9 3.7-2.1 3.9-0.1 2.5 0.8 2.7 2.6 4.9 0.9 3.7-1.9-0.2-1.4-0.7-1.1-1.1-1.2-1.8 0.6-1.3-1.4-2.1-1.7-0.7-2-0.2-1.8-0.7-2.7-3.9-1.5-1.2-1.4 1.3 0.6 3.2 3.2 2.5 6.2 3.1-6.2 2.6 0 1.2-1.7 0.8-2.4-1.2-7.3-8.4-0.5-1.3 0.1-2.5 0.7-1.7 1.1-0.9-1.9-1.2 0-1.3 5 0-1.3-4-2-0.3-2.1 1.5-1.5 1.6-2.4 1.7-7 2.1 0 1.1 1.4 0.9 0.5 1.9-0.2 2.5-0.4 2.5-0.4 0.5-1.2 0.8-0.5 3.1-0.6 1-0.7 0.6-12.9 0.2 0.2-2.8-1.2-1.3-3.3-1 0.2 0.9 0.4 3-2.8 1-8.4 0.2-0.5 0.2-0.2 0.7 0.1 2.1-0.5 1-1.1-0.4-1.6-1.3-0.1 1.6 3.3 2.1 1.1 1.5-0.8 0.6-1.2 0.1 1.4 1.8-1.8 1.3-5.5 1.4-2-0.1 0.6-2.6-3.9 2.4-1 1.6 1.8 1.1-0.6 1.1-1.4 0-1.5 1.6-1.7-0.6-1.1-2.1 1.1-1.3 1-2.6 0.4-2.9-0.6-2.1-1.9-0.3-1.3 2.4-2.1 8.8-0.9 1.5-7.8 0.6-1.9-0.6-1-2.3 3.4-1-0.2-3.3-2.4-2.8-3.3 0.8 1.9 5.1-1.3 0.8-2.5 2.2-1.2 0.8-4.7 0.6-3 1.1-0.8 0.5-0.5 0.8-0.2 1.3 0.3 2.4-0.4 0.7-1.3 0.1-0.6-1.6-0.3-2.1-0.4-1.5-1-1.3-5.6-3.2-1.4-0.4-0.5 0.6 1.1 2 1.4 1.2 1.3 0.6 0.6 0.9-0.8 2.3-1.2 1.3-1.3 0.5-1.2 0.9-0.7 2.2 6.2-2.5-0.5 1.8-0.7 1.2-1.9 2 1.9 1.4 0 1.1-6.2 4.6-3.6 5.4-1.7 1.7-2.1 0.7-2.7 0.2 0.8-2.5 2.6-6 1-1.6-1.7-0.1-2.3 2.2-4.2 5.5-0.6-3.1-1.6 1-1.9 2.4-1.5 1.1 0.6-3.1 1-1.3 1.3-1 1.2-1.6 0.2-1.3 0-1.7 0.1-1.9 0.6-2.1-4.4-0.3-2.1 0.6-1.6 2.2 1.2 1.4-2.8 2-0.8 0.4-1.2 0-3.2-1.3-2.5-0.2-1.7 0.9 0 1.5 2.3 1.7-1.8 1.1-1.5-0.5-1.4-1.1-1.6-0.8-0.8 0.1-3.4 2.1-0.9 0-1.1-0.9-1.7 2.9-1.7-0.2-0.6-1.9 1.5-2.1 0-1.3-1.7 0.2-0.9 1.3-0.8 1.7-1 1.9-1.4 1.5-1.3 0.8-6.2 1.1-6.7 6.6-2.6-2-14.9 2-1.2-0.8-1-2.2-0.9-0.8-1.1 0-6 1.7-3.9 2-2.1 0.1 1-2.7 3.9-7.2 1.3-1.5 2.7-0.8 1.2-1 0.2-1.2-0.6-1.7-0.2-1.6 0.3-1.7 0.8-2-3.3 1.2-1.1 0.8-0.7 1.4-0.4 1.9-0.6 1.6-1.4 0.7-0.9 0.8-0.4 1.9-0.3 2.3-0.6 1.9-0.9 1.1-2 1.5-0.8 1.1-3.1 5.3-3.5 4-8.2 4.6-1.3 2.1 0 3.4 1 2.9 1.6 0.7 0 1.2-15.6 2.6-1.1 1.1-5.6-1-2.1 0.5-1.7 1-5.4 1.3-1.6-0.4 1.6-1.2 2.3-4.2 1.4-0.9 3.7-0.7 12.8-6.3 3.7-0.4-0.6-3.9 0.4-1.4 1 0.1 1.2 0.3 3-0.1 2.2-1.1 2-2.6 2.3-4 1.4-3.8 1.6-5.5 0.5-3.7-1.5 1.3-6 13.5-2.4 3.4-1.8 0 0.5-2.5-0.9-0.8-1-0.4-1 0.2-0.9 1 0.3 1.3-3.6-1.2-1 1.7-0.3 1.8-0.6 0.1-0.6-1.2-0.3-1.9 0.9-5.5 0.1-0.7 1.5-1.6 6.9-2.6 1.3-2 2.1-4.5 1.5-1.2-4.8-1.8-9 1.9-4.3-0.1-2.2-0.9-2-1.3-1.5-1.9-0.5-2.8 0.5-2.2 1.5-2.3 0.7-0.9 0.7 1 3.7 2.2 4.1-1 7.2-5.2 9.4-10.7 1.3-0.9 1.3 0.3-0.7 2.3 1.5 1.3 1.7 0.5 3.7 0.5 4.2-0.7 4.4-1.9 5-4.7 1.9-0.7 1 0 5.1 1.2 1.1-0.2 0.8-2.7-0.4-2-1.3-2.8-1.8-2-1.1-0.7-0.7-0.9 1.4-0.7 1.6 0.1 0.5-2.2 0.9-1.7 3.9-2.5 3.8-4.2 0.7-4.6 1.2-4.9 1.7-0.8 2-3.2 0.7-4.8-0.1-2.8-1.3-2.9-7.2-0.4 1.8-4.5 2.3-1.9 9.7-2.8 1.3-2-0.3-3.1-0.6-2.5 0.5-2.6 1.2-0.5 1.7-2.2 1.4-3.1 0.5-1.8-0.7-2.1-1.1-0.6-1.2-1.6 0-2.3 1.5-2.9 4.6-0.8 22.3 6.1 3.9 2.3 1.6 1.9 2.9 5.9 1.8-0.5 0-2.5 0.5-2.3 2.8-1.4 3.8 0.5 1.4 0.5 0.7 3.5 0.8 2.6 4.5 2 5.6-1.1 3.8-3.6 0.3-2.1-0.1-5.3 0.6-3.5 1.5-3.4 1.9-1 12.6 1.1 14.6-2 4.8-2.2 2.9-0.6 3 0.3 6.2 2.8 1.1-0.6-0.3-0.9-1.1-5 1-1.2 7.2-3.5-0.9-0.7-4.5-1.3-2.2 0.6-3.3 2.7-0.3-0.8 0.5-2.4 0.9-1.8 1.9-2.4 2.4-1.4 1.5-0.5 1.6-1 0.1-1-0.7-1.5-2-2-1.1-1.7-0.6-2.8 7.7-1.9 1.2 0.6 0.8 2 1 1.9 4.8 6 2.3 2.2 2.3 0.9 4.1-1.2 6.1-5.4 2.9 0.1 1.8 2.3 1.5 4.1 1.1 4.9 0.2 5.1 4.4 2.8 3.5 0.2 25.3-8.5 2.1 0.6 1.2 1.4 0.8 1.5 1.4 1.2 2.5 0.6 5.3-0.1 8.4 2.1 4.3-0.5 2-1.2 1.8-2.2 0.9-3.3-0.3-0.5-0.3-2.2-0.2-1.4z" id="FIN3193" name="Uusimaa">
 </path>
 <circle cx="714.6" cy="1670.1" id="0">
 </circle>
 <circle cx="764.7" cy="1538.9" id="1">
 </circle>
 <circle cx="769.3" cy="1683.4" id="2">
 </circle>
</svg>